<?xml version="1.0" standalone="no"?>
<!DOCTYPE svg PUBLIC "-//W3C//DTD SVG 1.1//EN" "http://www.w3.org/Graphics/SVG/1.1/DTD/svg11.dtd" >
<svg xmlns="http://www.w3.org/2000/svg" xmlns:xlink="http://www.w3.org/1999/xlink" version="1.1">
<metadata></metadata>
<defs>
<font id="akzidenz-grotesk_bq_extraBdIt" horiz-adv-x="1024" >
<font-face units-per-em="2048" ascent="1638" descent="-410" />
<missing-glyph horiz-adv-x="512" />
<glyph horiz-adv-x="0" />
<glyph horiz-adv-x="682" />
<glyph unicode=" "  horiz-adv-x="512" />
<glyph unicode="&#x09;" horiz-adv-x="512" />
<glyph unicode="&#xa0;" horiz-adv-x="512" />
<glyph unicode="!" horiz-adv-x="598" d="M127 0l72 311h303l-72 -311h-303zM293 469l67 465q3 19 12.5 103t20.5 130q12 46 34.5 139.5t33.5 139.5h303q-10 -44 -31 -131t-31 -131q-8 -37 -20 -75.5t-28.5 -88t-24.5 -74.5l-150 -477h-186z" />
<glyph unicode="&#x22;" horiz-adv-x="641" d="M272 928l50 590h249l-225 -590h-74zM606 928l47 590h250l-223 -590h-74z" />
<glyph unicode="#" horiz-adv-x="1148" d="M57 412l54 219h231l61 205h-221l51 219h240l123 391h221l-121 -391h185l123 391h221l-121 -391h213l-51 -219h-232l-61 -205h225l-53 -219h-244l-129 -412h-223l131 412h-186l-132 -412h-219l129 412h-215zM563 631h185l63 205h-184z" />
<glyph unicode="$" horiz-adv-x="1067" d="M76 262q0 73 43 236h350q-4 -17 -15.5 -57.5t-17.5 -71t-6 -58.5q0 -96 107 -96q58 0 94 39q24 25 40.5 88.5t16.5 106.5q0 18 -7.5 35t-25 35t-27.5 27t-36 28.5t-29 21.5q-118 88 -141 106q-38 29 -54.5 43t-41.5 39.5t-35 46.5t-18.5 53t-8.5 70q0 110 61.5 262 t143.5 203q76 46 262 51l41 189h162l-45 -197q64 -7 113.5 -23t91 -45t64 -77.5t22.5 -114.5q0 -26 -4.5 -58t-7.5 -48t-13.5 -59.5t-11.5 -49.5h-334l9.5 38l10.5 42t7.5 38.5t3.5 41.5q0 37 -25.5 57.5t-62.5 20.5q-48 0 -74 -21q-30 -23 -49 -81.5t-19 -104.5 q0 -18 5.5 -35t11.5 -28t20.5 -25.5t22 -20.5t27.5 -21.5t26 -19.5q25 -19 75.5 -58t75.5 -58q39 -30 55.5 -43.5t45.5 -42.5t41.5 -51t23.5 -55.5t11 -70.5q0 -96 -45 -225q-25 -72 -58 -122.5t-70 -82t-91 -50t-107 -26t-133 -12.5l-51 -211h-162l51 220q-2 0 -39 6.5 t-55 11.5q-102 29 -158.5 95t-56.5 169z" />
<glyph unicode="%" horiz-adv-x="1622" d="M176 717q0 55 17 125l81 348q21 91 37 127q25 57 68.5 91t93 46t115.5 12q52 0 95 -9.5t79.5 -31t57 -61t20.5 -94.5q0 -45 -13 -99l-98 -419q-30 -129 -96 -179.5t-199 -50.5q-41 0 -76.5 5.5t-69.5 19t-58.5 35t-39 56t-14.5 79.5zM377 739q0 -51 65 -51q46 0 64 25.5 t29 77.5l92 399q12 46 12 65q0 54 -64 54q-21 0 -37 -8t-24.5 -17t-16.5 -29t-10.5 -30.5t-7.5 -34.5l-92 -397q-10 -45 -10 -54zM477 0l713 1446h164l-715 -1446h-162zM989 174q0 47 19 125l79 350q35 154 99.5 214.5t216.5 60.5q250 0 250 -197q0 -29 -13 -96l-96 -420 q-29 -128 -96.5 -179.5t-200.5 -51.5q-52 0 -95.5 9.5t-81.5 30.5t-59.5 60t-21.5 94zM1188 197q0 -52 67 -52q24 0 40.5 7.5t26.5 24.5t14 30.5t10 40.5l92 399q12 46 12 66q0 53 -64 53q-21 0 -37 -8t-24.5 -17t-16.5 -29t-10.5 -30.5t-7.5 -34.5l-92 -397 q-10 -45 -10 -53z" />
<glyph unicode="&#x26;" horiz-adv-x="1366" d="M90 338q0 86 29 159t84.5 130.5t115 99t140.5 84.5q-29 145 -29 211q0 199 111.5 309.5t310.5 110.5q91 0 163 -27.5t118.5 -91t46.5 -156.5q0 -61 -24 -118.5t-57.5 -99t-88 -84.5t-96.5 -69.5t-103 -60.5q44 -115 150 -286q78 111 106 305h285q-27 -151 -80.5 -267 t-151.5 -219q45 -38 90 -50.5t111 -10.5l-66 -236q-20 -2 -63 -2q-188 0 -320 107q-105 -51 -183 -75t-173 -24q-85 0 -160.5 22.5t-135.5 65.5t-95 113.5t-35 159.5zM424 362q0 -71 48.5 -104t123.5 -33q65 0 123 27q-99 140 -178 326q-117 -102 -117 -216zM731 1071 q0 -53 14 -125q158 93 158 219q0 32 -16.5 55t-46.5 23q-56 0 -82.5 -54.5t-26.5 -117.5z" />
<glyph unicode="'" horiz-adv-x="307" d="M272 928l50 590h249l-225 -590h-74z" />
<glyph unicode="(" horiz-adv-x="724" d="M113 -117q0 105 45 289l221 954q23 100 57.5 163.5t91 99t125 48.5t172.5 13q48 0 146 -4l-29 -127q-36 0 -56.5 -0.5t-46 -3t-40 -7.5t-31.5 -13.5t-27 -21t-21 -31t-19 -43t-15 -56.5l-283 -1217q-16 -74 -16 -112q0 -18 3.5 -32.5t13.5 -24.5l17.5 -17.5t25 -11.5 t26 -6.5t30.5 -3t28.5 -1t30.5 0.5t26 1l-29 -131q-9 0 -27.5 -1t-27.5 -1q-46 0 -75.5 1t-72.5 7.5t-73 17.5t-62 33.5t-55 53.5q-53 72 -53 184z" />
<glyph unicode=")" horiz-adv-x="724" d="M-119 -412l31 129q7 0 22.5 -1t22.5 -1q103 0 145 38t66 141l281 1214q16 74 16 115q0 16 -4 28.5t-9.5 22t-16 16.5t-19.5 12t-24 8t-25 4.5t-27 2t-26.5 0.5h-26.5h-23l31 131h55q67 0 118.5 -5.5t104.5 -23.5t87.5 -48.5t56.5 -83t22 -124.5q0 -109 -45 -301 l-219 -954q-23 -99 -58.5 -162t-91.5 -99t-125 -49.5t-171 -13.5q-50 0 -148 4z" />
<glyph unicode="*" horiz-adv-x="841" d="M244 1169l104 195l193 -104l45 210l215 -47l-45 -211l221 25l24 -217l-213 -27l89 -182l-199 -96l-94 196l-160 -141l-148 164l152 135z" />
<glyph unicode="+" horiz-adv-x="1142" d="M223 485l60 258h247l70 299l318 -2l-68 -297h244l-60 -258h-243l-70 -299h-318l68 299h-248z" />
<glyph unicode="," horiz-adv-x="512" d="M-25 -317l187 317h-113l72 313h307l-74 -313l-248 -317h-131z" />
<glyph unicode="-" horiz-adv-x="673" d="M106 481l58 250h559l-57 -250h-560z" />
<glyph unicode="." horiz-adv-x="512" d="M45 0l72 313h305l-72 -313h-305z" />
<glyph unicode="/" horiz-adv-x="598" d="M14 0l539 1446h244l-545 -1446h-238z" />
<glyph unicode="0" horiz-adv-x="1067" d="M131 274q0 112 43 291l119 514q18 75 35 123t47 98t76.5 84t113.5 56q89 30 209 30q78 0 144 -16t120.5 -50t85.5 -94.5t31 -142.5q0 -85 -35 -237l-112 -494q-2 -8 -5 -24q-37 -161 -71 -230q-61 -125 -187 -174q-86 -35 -215 -35q-63 0 -118.5 8.5t-108 30.5t-90 55.5 t-60 86t-22.5 120.5zM438 315q0 -44 28.5 -68t74.5 -24q29 0 52 11t36 24.5t24 41t15 44l12 49.5l158 686q8 40 8 60q0 46 -27 69t-74 23q-36 0 -60.5 -11.5t-38.5 -36t-21.5 -46.5t-15.5 -58q0 -3 -0.5 -5t-1 -4.5t-1.5 -4.5l-155 -668q-13 -58 -13 -82z" />
<glyph unicode="1" horiz-adv-x="1067" d="M391 0l246 1061q-94 -58 -240 -98l68 294q116 19 184.5 57.5t122.5 131.5h268l-333 -1446h-316z" />
<glyph unicode="2" horiz-adv-x="1067" d="M39 0q13 65 17 86t17 77.5t22.5 81.5t27.5 71t37 74.5t47 64t61 65.5q21 19 45.5 38.5t43.5 33.5t50 35t45.5 30t51.5 32.5t47 29.5q3 2 30 19.5t40.5 26t40 26.5t42 30t32 26.5t24.5 24.5q28 38 49.5 122.5t21.5 138.5q0 98 -96 98q-15 0 -28 -2.5t-23 -5.5t-19.5 -10.5 t-15.5 -12t-12.5 -17t-9.5 -17.5t-8.5 -21t-7 -21t-7 -23.5t-6.5 -23.5q-31 -116 -39 -162h-326q53 212 62 240q48 155 127 224q109 94 338 94q81 0 148.5 -14t127.5 -45.5t94.5 -92t34.5 -145.5q0 -99 -42.5 -244.5t-98.5 -214.5q-24 -29 -71.5 -65.5t-88 -62.5 t-101.5 -63.5t-81 -50.5q-143 -94 -174 -133q-32 -43 -47 -82h551l-60 -260h-913z" />
<glyph unicode="3" horiz-adv-x="1067" d="M115 279q0 72 32 208h316q-2 -14 -18.5 -83.5t-16.5 -108.5q0 -42 28 -67t70 -25q39 0 65.5 13.5t42 43t22.5 52t16 65.5q3 13 9.5 42t10 46.5t7 42t3.5 45.5q0 22 -8.5 38t-20 24t-31.5 12.5t-34 5t-37 0.5h-106l55 244h119q33 0 48.5 1t40 9t40.5 24q24 24 43.5 109.5 t19.5 132.5q0 42 -25 64t-67 22q-23 0 -42.5 -7t-33 -16.5t-25.5 -28.5t-18.5 -32t-13.5 -39.5t-9.5 -38.5t-8 -41.5t-6.5 -36.5h-318q57 269 121 344q112 130 373 130q70 0 135 -14t124 -44t94.5 -86t35.5 -131q0 -69 -23.5 -171t-54.5 -157q-31 -57 -78.5 -82t-118.5 -30 q158 -23 158 -168q0 -78 -39 -224.5t-78 -211.5q-33 -53 -78 -89.5t-99.5 -55.5t-108.5 -26.5t-119 -7.5q-64 0 -119 8.5t-106.5 30.5t-88 56t-58 87t-21.5 122z" />
<glyph unicode="4" horiz-adv-x="1067" d="M49 311l55 240l635 895h424l-209 -903h136l-54 -232h-135l-72 -311h-317l74 311h-537zM373 551h268q108 457 164 645q-87 -142 -211.5 -325.5t-220.5 -319.5z" />
<glyph unicode="5" horiz-adv-x="1067" d="M129 276q0 65 29 191h317q-2 -9 -10.5 -43.5t-12 -57t-3.5 -44.5q0 -44 27 -71.5t71 -27.5q50 0 77 25t48 76q17 43 45 175.5t28 174.5q0 46 -25.5 73t-72.5 27q-89 0 -117 -106h-305l201 778h780l-57 -248h-479l-90 -315q94 104 233 104q124 0 190 -70.5t66 -195.5 q0 -102 -42.5 -280t-88.5 -263q-115 -203 -416 -203q-62 0 -117 9t-106.5 31t-88.5 55.5t-59 86.5t-22 119z" />
<glyph unicode="6" horiz-adv-x="1067" d="M139 287q0 17 1 35t4 38t4.5 33.5t6.5 38t7 34t8.5 37.5t7.5 34l113 489q53 226 125 311q113 133 364 133q70 0 134 -13.5t122.5 -43.5t93.5 -85t35 -130q0 -48 -26 -172h-308q27 89 27 117q0 39 -27.5 60.5t-68.5 21.5q-55 0 -92 -43q-11 -12 -29 -65.5t-33 -107.5 t-32.5 -120t-20.5 -78q52 51 105.5 72.5t125.5 21.5q126 0 194.5 -69.5t68.5 -194.5q0 -74 -39.5 -231t-73.5 -226q-58 -115 -159.5 -161t-244.5 -46q-65 0 -120.5 9t-107 31.5t-87 57t-57 89t-21.5 123.5zM449 315q0 -45 25.5 -69.5t70.5 -24.5q63 0 98 43q22 25 56 159.5 t34 178.5q0 43 -30 64.5t-74 21.5q-72 0 -113 -84q-19 -36 -43 -141.5t-24 -147.5z" />
<glyph unicode="7" horiz-adv-x="1067" d="M238 1006l102 440h911l-57 -248q-215 -293 -357.5 -578.5t-230.5 -619.5h-366q100 288 180 446q91 183 209 363t276 393l-338 -4l-45 -192h-284z" />
<glyph unicode="8" horiz-adv-x="1067" d="M129 299q0 108 44.5 255t113.5 202q42 34 133 53q-125 47 -125 190q0 81 36 190t87 165q106 116 336 116q78 0 146 -15.5t126.5 -49.5t92.5 -95t34 -143q0 -62 -13 -125.5t-40 -124.5t-76.5 -102t-114.5 -47q39 -13 60 -31q63 -55 63 -162q0 -16 -1 -31.5t-4 -33.5 t-4.5 -30.5t-6.5 -33t-7 -29.5t-8 -33t-8 -30q-35 -134 -83.5 -213t-136.5 -122.5t-224 -43.5q-68 0 -126.5 9.5t-114 32.5t-94 59t-62 93t-23.5 130zM438 309q0 -46 28 -72t75 -26q44 0 70.5 23t45.5 67q11 30 35.5 137t24.5 133q0 43 -29.5 65.5t-73.5 22.5q-47 0 -73 -20 q-21 -16 -35 -47q-13 -29 -40.5 -142t-27.5 -141zM590 956q0 -47 31 -70.5t79 -23.5q23 0 41 5t31.5 19.5t21 23.5t15.5 34.5t10.5 34t9.5 39.5q19 74 19 121q0 46 -30.5 67t-78.5 21q-27 0 -57 -15q-36 -20 -64 -111t-28 -145z" />
<glyph unicode="9" horiz-adv-x="1067" d="M125 246q0 57 25 176h307q-27 -84 -27 -119q0 -40 30.5 -60t71.5 -20q24 0 43.5 7.5t33.5 23.5t24 30.5t18 41t12 41t10.5 44t8.5 38.5q31 122 51 192q-78 -98 -229 -98q-119 0 -191.5 66t-72.5 184q0 82 39 240t77 235q101 205 402 205q81 0 148.5 -16.5t124 -51.5 t88.5 -97.5t32 -146.5q0 -64 -21 -153l-131 -572q-16 -68 -28 -110.5t-37 -105.5t-53 -99q-61 -75 -160.5 -110.5t-208.5 -35.5q-70 0 -134 13.5t-123 43t-94.5 84.5t-35.5 130zM555 850q0 -43 26 -66.5t70 -23.5q57 0 99 45q23 25 57.5 152t34.5 171q0 46 -27.5 72.5 t-73.5 26.5q-49 0 -77 -25t-39 -57q-16 -40 -43 -149.5t-27 -145.5z" />
<glyph unicode=":" horiz-adv-x="598" d="M127 0l72 313h305l-72 -313h-305zM311 797l72 313h307l-72 -313h-307z" />
<glyph unicode=";" horiz-adv-x="598" d="M61 -317l187 317h-115l72 313h309l-72 -313l-247 -317h-134zM317 797l72 313h309l-71 -313h-310z" />
<glyph unicode="&#x3c;" horiz-adv-x="1144" d="M268 553l66 272l823 400l-74 -316l-505 -235l409 -228l-69 -290z" />
<glyph unicode="=" horiz-adv-x="1144" d="M178 297l58 250h796l-55 -250h-799zM279 731l57 250h799l-58 -250h-798z" />
<glyph unicode="&#x3e;" horiz-adv-x="1144" d="M197 156l73 315l508 236l-409 225l69 291l647 -396l-63 -272z" />
<glyph unicode="?" horiz-adv-x="937" d="M203 0l73 313h308l-74 -313h-307zM293 1036q20 90 39 166q29 104 71 159t134 85q83 29 211 29q362 0 362 -261q0 -67 -29 -167q-23 -79 -51 -117.5t-98 -89.5q-26 -19 -77 -54t-62 -43q-97 -67 -123.5 -109t-48.5 -161h-308q2 8 10 47t11.5 55t13 50t17.5 54t20.5 44.5 t26.5 42.5q33 40 88 77.5t105 66.5t97 65t75 88.5t28 120.5q0 35 -20.5 55.5t-55.5 20.5q-51 0 -84 -41q-21 -29 -53 -183h-299z" />
<glyph unicode="@" horiz-adv-x="1708" d="M150 453q0 202 78 388.5t208.5 322.5t310.5 217t375 81q275 0 443 -151.5t168 -399.5q0 -141 -55 -300t-142 -267q-76 -98 -166 -151.5t-178 -53.5q-74 0 -120.5 37t-55.5 103q-122 -140 -262 -140q-123 0 -191.5 81t-68.5 226q0 158 68.5 303.5t181 234.5t233.5 89 q45 0 88 -16q34 -12 56 -34.5t50 -72.5l27 82h193l-91 -325q-65 -236 -73 -289q-4 -18 -4 -45q0 -49 37 -49q46 0 118 88q74 94 120 228.5t46 258.5q0 193 -114 296t-328 103q-148 0 -288 -70t-243.5 -185t-166 -271.5t-62.5 -322.5q0 -244 148.5 -386.5t402.5 -142.5 q368 0 692 289l90 -135q-88 -76 -139.5 -112.5t-130.5 -78.5q-257 -133 -528 -133q-334 0 -530.5 190t-196.5 513zM715 483q0 -69 29 -107t81 -38q39 0 82 27t80 75q41 56 70.5 133.5t29.5 139.5v16q0 66 -32 107t-84 41q-110 0 -189 -152q-67 -124 -67 -242z" />
<glyph unicode="A" horiz-adv-x="1110" d="M-27 0l621 1446h563l-104 -1446h-344l30 322h-268l-123 -322h-375zM563 569h199l65 744z" />
<glyph unicode="B" horiz-adv-x="1110" d="M43 0l334 1446h469q43 0 75.5 -1.5t75 -6.5t73.5 -14.5t63.5 -27t53 -42t33.5 -61.5t13 -83q0 -59 -24 -167t-50 -150q-35 -58 -89.5 -83.5t-135.5 -37.5q84 -21 130 -62.5t46 -119.5q0 -63 -36.5 -215.5t-65.5 -214.5q-24 -51 -62 -84.5t-87.5 -49t-95.5 -21t-106 -5.5 h-614zM453 254h151q25 0 43.5 3t32 13t21.5 17t16 28t11 31.5t11 40.5q3 10 15 49.5t17 65.5t5 51q0 72 -100 72h-137zM596 868h123q73 0 105 22t50 91q27 97 27 135q0 42 -26.5 57t-71.5 15h-135z" />
<glyph unicode="C" horiz-adv-x="1067" d="M100 258q0 63 33 203l139 608q27 125 62 195q26 53 64 91t78.5 60t94.5 34.5t101 16.5t108 4q69 0 124.5 -6t114.5 -25t98.5 -50t65 -86t25.5 -129q0 -32 -6 -72t-12 -64t-19.5 -75.5t-17.5 -65.5h-336q4 19 17.5 67t20.5 84t7 68q0 90 -108 90q-97 0 -117 -86l-170 -741 q-12 -46 -12 -68q0 -42 26 -65t68 -23q61 0 102 41q23 23 47 116t37 167h357q-8 -33 -21 -95q-14 -63 -21 -93t-21 -80.5t-24.5 -74t-29 -61t-38.5 -54.5t-48 -41.5t-62 -34.5t-77.5 -22t-96 -16t-116.5 -4q-271 0 -375 123q-62 71 -62 164z" />
<glyph unicode="D" horiz-adv-x="1110" d="M45 0l334 1446h489q52 0 91 -2.5t85.5 -10.5t79 -25t61.5 -43t43.5 -68t14.5 -97q0 -56 -18 -137l-162 -709q-17 -75 -30.5 -120.5t-35 -90.5t-47.5 -68t-66.5 -42.5t-93.5 -26t-128 -6.5h-617zM451 242h88q93 0 127.5 26t54.5 115l160 698q4 14 4 41q0 43 -23.5 60.5 t-68.5 17.5h-121z" />
<glyph unicode="E" horiz-adv-x="894" d="M41 0l334 1446h727l-58 -248h-374l-76 -332h356l-55 -243h-356l-86 -369h409l-57 -254h-764z" />
<glyph unicode="F" horiz-adv-x="854" d="M45 0l334 1446h727l-57 -246h-379l-76 -330h364l-57 -249h-364l-144 -621h-348z" />
<glyph unicode="G" horiz-adv-x="1110" d="M88 231q0 58 10.5 128t19.5 111t32.5 131t29.5 114q16 63 45 188.5t45 188.5q27 118 62 182q32 60 78.5 101t104.5 62t116 29.5t129 8.5q288 0 393 -142q45 -61 45 -135q0 -39 -8 -82.5t-23 -98.5t-20 -81h-336q3 15 15 56.5t18 72t6 57.5q0 42 -25 64t-67 22 q-67 0 -100 -39.5t-48 -111.5l-153 -664q-8 -31 -8 -67q0 -48 29 -73.5t77 -25.5q29 0 52 11.5t37 26.5t26.5 42t18 46t13.5 50q17 67 27 115h-139l53 234h473l-172 -752h-334l33 139q-62 -86 -130 -125t-169 -39q-123 0 -189.5 66.5t-66.5 189.5z" />
<glyph unicode="H" horiz-adv-x="1150" d="M43 0l334 1446h352l-135 -588h240l135 588h352l-334 -1446h-352l141 608h-239l-142 -608h-352z" />
<glyph unicode="I" horiz-adv-x="555" d="M43 0l334 1446h350l-334 -1446h-350z" />
<glyph unicode="J" horiz-adv-x="768" d="M35 0l59 260h84q68 0 104 16.5t53.5 50t33.5 103.5l227 1016h352l-243 -1055q-32 -135 -50 -176q-24 -56 -56 -95.5t-67 -62.5t-82.5 -36t-92.5 -17t-107 -4h-215z" />
<glyph unicode="K" horiz-adv-x="1110" d="M43 0l334 1446h346l-148 -639l406 639h373l-467 -670l178 -776h-358l-138 776l-180 -776h-346z" />
<glyph unicode="L" horiz-adv-x="811" d="M45 0l334 1446h350l-276 -1200h370l-57 -246h-721z" />
<glyph unicode="M" horiz-adv-x="1579" d="M43 0l336 1446h481q-1 -46 -6.5 -242.5t-8.5 -279.5t-9 -230.5t-15 -267.5q127 304 443 1020h481l-334 -1446h-328l275 1075l-481 -1075h-295l10 1075l-221 -1075h-328z" />
<glyph unicode="N" horiz-adv-x="1150" d="M45 0l334 1446h340q66 -508 104 -897q21 136 47.5 272.5t72 353.5t56.5 271h322l-334 -1446h-338q-83 668 -102 891l-176 -891h-326z" />
<glyph unicode="O" horiz-adv-x="1110" d="M117 295q0 87 22 180l133 559q33 150 64 213q32 66 80 112t109.5 69t123 32.5t137.5 9.5q439 0 439 -313q0 -26 -3 -56t-5 -49.5t-10 -57t-10.5 -48.5t-13.5 -56.5t-12 -49.5l-116 -488q-30 -129 -70 -198q-33 -57 -81.5 -95.5t-109.5 -56.5t-117 -24.5t-128 -6.5 q-70 0 -129.5 8.5t-116.5 31.5t-97 58.5t-64.5 93t-24.5 132.5zM461 315q0 -44 31 -64t77 -20q30 0 53.5 12.5t37.5 27t27 45.5t17.5 47.5t13.5 55.5t11 48q8 34 25.5 101.5t25.5 101.5q11 46 33.5 137t34.5 137q2 6 11 40.5t12.5 49.5t7.5 41t4 45q0 43 -27.5 66.5 t-71.5 23.5q-54 0 -79.5 -18.5t-42.5 -69.5q-13 -39 -24.5 -81t-25 -98.5t-20.5 -82.5q-70 -266 -103 -401q-2 -10 -11 -43t-13 -56.5t-4 -44.5z" />
<glyph unicode="P" horiz-adv-x="1067" d="M43 0l336 1446h541q68 0 118 -9t96 -32t70.5 -70.5t24.5 -117.5q0 -42 -9 -95.5t-30.5 -140t-22.5 -92.5q-21 -94 -45.5 -150t-67 -94t-103.5 -52.5t-156 -14.5h-267l-135 -578h-350zM588 840h135q25 0 44.5 4t33 15t22 20.5t16 30.5t11 34t10.5 41q3 13 11 43.5t12 53 t4 44.5q0 37 -25.5 54.5t-64.5 17.5h-125z" />
<glyph unicode="Q" horiz-adv-x="1110" d="M119 301q0 81 18 158l129 565q34 144 58 203q30 73 78 123t110 76.5t127.5 37.5t146.5 11q85 0 156 -13.5t136.5 -46t103 -95.5t37.5 -153q0 -89 -41 -274l-115 -494q-16 -69 -30.5 -116.5t-36.5 -96t-50.5 -80.5t-68 -59t-93 -42.5t-122.5 -22.5q-1 -4 -12 -37.5 t-17 -55.5t-6 -36q0 -66 123 -66q30 0 88 4l-62 -209h-112h-28q-28 1 -58.5 0t-62.5 2.5t-61.5 9t-56 18t-46 30t-31 45.5t-11.5 63q0 30 11 72.5t28.5 95t22.5 72.5q-128 35 -190 108.5t-62 202.5zM461 324q0 -88 102 -88q40 0 67.5 13t44 42.5t23.5 52t17 66.5l149 647 q13 50 13 69q0 45 -29.5 66.5t-75.5 21.5q-27 0 -47.5 -7.5t-32.5 -17.5t-22 -31t-14.5 -35.5t-12.5 -45.5l-174 -694q-8 -40 -8 -59z" />
<glyph unicode="R" horiz-adv-x="1110" d="M43 0l334 1446h495q180 0 262.5 -52t82.5 -165q0 -77 -31 -217q-40 -162 -84 -238q-53 -94 -195 -139l131 -635h-356l-96 608h-51l-140 -608h-352zM594 862h111q55 0 85.5 15t47.5 49q16 47 26 96q19 84 19 111q0 34 -23 49.5t-74 15.5h-114z" />
<glyph unicode="S" horiz-adv-x="1067" d="M78 258q0 15 1 31.5t2.5 29t5 31.5t5.5 29t7 31t7 28.5t8 31t7 28.5h350q-41 -144 -41 -187q0 -48 28.5 -72t76.5 -24q60 0 96 39q23 25 40 83t17 97q0 12 -1.5 22.5t-6.5 21t-8 18t-12.5 17.5t-13 14.5t-16.5 15t-15.5 13t-18 14t-16.5 12.5q-12 9 -67.5 49.5t-91 67.5 t-75 64.5t-53.5 63.5q-29 54 -29 121q0 82 44 217t93 193q40 47 102 73t115.5 32.5t126.5 6.5q45 0 83 -2t84 -9t82.5 -19t72.5 -32.5t60 -48t38.5 -68.5t14.5 -91q0 -25 -4 -56.5t-7.5 -48t-13.5 -59t-12 -49.5h-334q3 11 13 46.5t15 60.5t5 49q0 39 -26.5 59.5t-65.5 20.5 q-67 0 -105 -62q-12 -21 -23.5 -71t-11.5 -76q0 -37 21 -70q9 -15 61 -56t116 -89t79 -60q34 -27 52.5 -42.5t44.5 -44t40 -54.5q25 -46 25 -117q0 -83 -35 -199t-84 -173q-111 -134 -404 -134q-448 0 -448 283z" />
<glyph unicode="T" horiz-adv-x="854" d="M195 0l276 1196h-264l59 250h856l-57 -250h-242l-276 -1196h-352z" />
<glyph unicode="U" horiz-adv-x="1110" d="M106 295q0 29 2.5 58.5t9.5 66.5t11 56.5t15 65.5t14 58l198 846h351l-240 -1032q-10 -45 -10 -80q0 -44 30 -65t76 -21q36 0 62 13t42 40t24 51t16 62l239 1032h346l-237 -1032q-26 -124 -60 -195q-62 -135 -177.5 -189.5t-280.5 -54.5q-67 0 -126.5 9t-116.5 32.5 t-97.5 58.5t-65.5 91.5t-25 128.5z" />
<glyph unicode="V" d="M201 0l63 1446h338q-6 -82 -18.5 -280.5t-20.5 -307t-24 -271t-35 -296.5q60 197 106 323l308 832h376l-606 -1446h-487z" />
<glyph unicode="W" horiz-adv-x="1662" d="M141 0l129 1446h344l-69 -498q-61 -445 -103 -631q54 161 70 199l375 930h422l-68 -1108q47 210 96 360l246 748h350l-530 -1446h-438q3 66 9.5 260t10.5 290.5t13 249.5t20 279q-72 -233 -217 -577l-211 -502h-449z" />
<glyph unicode="X" d="M-68 0l463 815l-129 631h346l60 -428l217 428h375l-422 -686l119 -760h-343l-55 545l-258 -545h-373z" />
<glyph unicode="Y" horiz-adv-x="1067" d="M264 1446h342l49 -590l295 590h391l-401 -649q-21 -34 -66 -101t-77.5 -120.5t-57.5 -104.5q-6 -12 -30 -129q-41 -170 -78 -342h-346l114 500z" />
<glyph unicode="Z" horiz-adv-x="980" d="M-53 0l61 266l729 928h-487l59 252h871l-62 -266l-721 -914h510l-61 -266h-899z" />
<glyph unicode="[" horiz-adv-x="724" d="M2 -418l444 1864h529l-31 -131h-223l-381 -1606h221l-29 -127h-530z" />
<glyph unicode="\" horiz-adv-x="598" d="M266 1446h238l39 -1446h-242z" />
<glyph unicode="]" horiz-adv-x="724" d="M-143 -418l28 127h230l370 1606h-219l31 131h528l-440 -1864h-528z" />
<glyph unicode="^" horiz-adv-x="1144" d="M188 735l519 711h280l187 -713h-302l-73 441l-285 -439h-326z" />
<glyph unicode="_" d="M-174 -469l51 221h1065l-51 -221h-1065z" />
<glyph unicode="`" horiz-adv-x="512" d="M-33 1495h344l195 -254h-250z" />
<glyph unicode="a" horiz-adv-x="980" d="M37 170q0 78 37.5 191t87.5 163q26 25 75.5 50.5t117.5 49.5t120 40t127 36.5t94 26.5q3 14 10 39.5t11 47t4 40.5q0 61 -88 61q-15 0 -28.5 -2.5t-23.5 -5.5t-19.5 -11t-15.5 -13t-13 -17.5t-10 -18t-8.5 -21.5t-7 -21.5t-7 -24.5t-6.5 -24h-312q36 171 82 231 q99 131 383 131q385 0 385 -239q0 -49 -18 -123l-146 -631q-6 -24 -6 -53q0 -49 29 -72h-373l29 115q-79 -70 -146 -107t-149 -37q-95 0 -155 52.5t-60 146.5zM373 252q0 -68 76 -68q36 0 65.5 17t67.5 49l67 264q-7 -2 -40 -12t-53 -16.5t-48.5 -17.5t-48.5 -23t-31 -25 q-20 -23 -35 -72q-20 -72 -20 -96z" />
<glyph unicode="b" d="M33 0l334 1446h331l-106 -465q56 74 113.5 108.5t142.5 34.5q104 0 165.5 -61.5t61.5 -165.5q0 -91 -59.5 -366.5t-97.5 -352.5q-100 -205 -306 -205q-153 0 -219 148l-28 -121h-332zM434 274q0 -36 24 -57.5t60 -21.5q92 0 119 116l96 426q1 7 6 26t7 32t2 26 q0 39 -25 61.5t-64 22.5t-68 -23.5t-38 -62.5l-115 -504q-4 -14 -4 -41z" />
<glyph unicode="c" horiz-adv-x="1001" d="M109 266q0 46 9 105.5t18 98t28 113.5t24 97q34 147 60 209q29 70 72.5 117.5t101 72t118 34t138.5 9.5q72 0 136 -14.5t121 -45t90.5 -87.5t33.5 -133q0 -39 -27 -154h-315q2 8 7.5 26.5t8 29t6 26.5t5 30t1.5 27q0 34 -22 53t-57 19q-63 0 -91.5 -36t-44.5 -105 l-100 -439q-4 -14 -4 -40q0 -38 24 -61t62 -23q27 0 48.5 12.5t33.5 25t23.5 44t14 43t10.5 48.5q2 9 3 13h330q-15 -63 -26 -102t-32 -88t-47 -80t-67.5 -61t-95.5 -48q-85 -31 -199 -31q-76 0 -143.5 15t-126.5 47.5t-94 92t-35 140.5z" />
<glyph unicode="d" d="M92 207q0 30 3 62t11.5 72.5t13 61.5t17.5 72t15 60q51 226 61 262q15 59 47 139q35 82 88 127q72 61 191 61q78 0 147.5 -36.5t95.5 -104.5l107 463h330l-334 -1446h-330l35 133q-60 -73 -122.5 -113t-143.5 -40q-105 0 -168.5 61.5t-63.5 165.5zM426 266 q0 -37 23 -58.5t61 -21.5q25 0 44.5 10t32 24t22.5 37.5t15 40t11 42.5l98 424q6 27 6 57q0 40 -23 62t-63 22q-29 0 -50.5 -12t-34.5 -35t-20 -43.5t-13 -50.5l-95 -410q-14 -68 -14 -88z" />
<glyph unicode="e" d="M111 266q0 39 12 121q16 108 57 277.5t74 240.5q103 219 408 219q397 0 397 -266q0 -45 -8 -100.5t-16 -91t-25.5 -104.5t-22.5 -91h-524q-3 -16 -11 -48t-12 -52t-8 -47.5t-4 -51.5q0 -38 27 -56.5t67 -18.5q24 0 42 5t31 19t21 24t15 34.5t9.5 34.5t8.5 40h332 q-17 -63 -24.5 -87.5t-25.5 -70.5t-42.5 -77t-59.5 -60q-57 -46 -145 -67t-176 -21q-61 0 -115.5 8.5t-107 30t-90.5 54.5t-61 84.5t-23 117.5zM508 672h211q3 15 11.5 46t13 55.5t4.5 47.5q0 84 -93 84q-25 0 -44.5 -7.5t-33.5 -24t-24 -32t-17.5 -42t-11 -42.5t-9 -45.5 t-7.5 -39.5z" />
<glyph unicode="f" horiz-adv-x="641" d="M100 0l207 899h-131l45 199h133q38 163 50 199q32 87 94 121q70 36 223 36q95 0 194 -6l-47 -201q-14 2 -43 2q-27 0 -46.5 -2t-33 -10t-21.5 -13.5t-14.5 -22t-9.5 -26.5t-8.5 -36t-9.5 -41h143l-47 -199h-143l-207 -899h-328z" />
<glyph unicode="g" d="M-14 -225q0 45 18 112h324q-19 -83 -19 -104q0 -38 23.5 -57t62.5 -19q59 0 85.5 36t41.5 101l70 289q-61 -74 -122 -112.5t-144 -38.5q-111 0 -167.5 65t-56.5 176q0 103 57.5 340t104.5 342q46 103 92 144q79 73 201 73q82 0 141.5 -39.5t85.5 -115.5l31 131h330 l-256 -1110q-38 -167 -65 -233q-63 -148 -197 -208q-9 -4 -19 -8q-91 -35 -221 -35q-58 0 -110.5 6.5t-107 25.5t-94 48t-64.5 78t-25 113zM428 287q0 -41 21 -64.5t61 -23.5q53 0 85 39t44 96l104 454q5 30 5 37q0 38 -26 59t-65 21q-55 0 -83 -36t-42 -97l-90 -387 q-14 -58 -14 -98z" />
<glyph unicode="h" d="M39 0l334 1446h325l-108 -471q116 143 266 143q101 0 163 -54.5t62 -154.5q0 -30 -12 -92l-186 -817h-326l178 772q6 24 6 51q0 38 -24 61t-62 23q-46 0 -69 -25.5t-35 -74.5l-186 -807h-326z" />
<glyph unicode="i" horiz-adv-x="512" d="M39 0l252 1098h325l-254 -1098h-323zM315 1200l58 246h325l-57 -246h-326z" />
<glyph unicode="j" horiz-adv-x="512" d="M-197 -403l50 215q82 0 104 7q41 14 60 78q3 10 6 21l272 1180h323l-274 -1188q-16 -71 -33 -119t-41.5 -84.5t-52 -57.5t-71.5 -34t-93.5 -17t-122.5 -4q-21 0 -63.5 1.5t-63.5 1.5zM319 1202l58 244h321l-55 -244h-324z" />
<glyph unicode="k" d="M41 0l334 1446h325l-176 -762l340 414h367l-426 -473l188 -625h-336l-155 590l-135 -590h-326z" />
<glyph unicode="l" horiz-adv-x="512" d="M39 0l334 1446h327l-333 -1446h-328z" />
<glyph unicode="m" horiz-adv-x="1579" d="M41 0l252 1098h330l-29 -127q43 70 126 110.5t169 40.5q50 0 93.5 -15t75.5 -50t38 -86q58 73 142.5 113t178.5 40q97 0 161 -46.5t64 -139.5q0 -34 -12 -96l-194 -842h-332l180 778q4 14 4 43q0 38 -23 61t-61 23q-91 0 -119 -125l-180 -780h-334l183 791q4 14 4 40 q0 36 -23 58t-59 22q-52 0 -83 -33t-42 -87l-182 -791h-328z" />
<glyph unicode="n" d="M41 0l252 1098h321l-24 -111q58 61 134 98t155 37q97 0 150.5 -52t53.5 -148q0 -52 -12 -105l-188 -817h-328l178 772q4 24 4 39q0 90 -75 90q-95 0 -123 -131l-179 -770h-319z" />
<glyph unicode="o" d="M111 270q0 31 4 68t8 64.5t13.5 73.5t14 65t17.5 71.5t16 63.5q31 141 62 213q58 132 159.5 184.5t256.5 52.5q65 0 120 -8t108.5 -29.5t90.5 -54.5t59.5 -86.5t22.5 -122.5q0 -29 -4 -64.5t-8.5 -64t-14 -73.5t-15 -67t-17.5 -71t-15 -61q-15 -62 -27 -105.5 t-28.5 -90.5t-35.5 -78t-44.5 -62t-57.5 -50t-73.5 -34.5t-93 -22t-115.5 -6.5q-403 0 -403 295zM428 281q0 -39 25 -62.5t65 -23.5q26 0 45.5 9t30 18.5t21 34t13 35t9.5 42.5q1 5 2 8l100 440q6 21 6 45q0 37 -25 58.5t-63 21.5q-53 0 -78.5 -32.5t-39.5 -92.5l-101 -438 q-10 -50 -10 -63z" />
<glyph unicode="p" d="M-51 -395l344 1493h330l-37 -140q65 83 127 122.5t155 39.5q102 0 162 -59t60 -160q0 -58 -17 -131l-106 -463q-17 -75 -38.5 -129t-58 -103.5t-93 -75.5t-132.5 -26q-92 0 -157.5 43.5t-84.5 130.5l-127 -542h-327zM440 279q0 -38 23 -62t61 -24q88 0 115 114l98 428 q2 9 7 28.5t7.5 35t2.5 30.5q0 37 -23.5 60.5t-60.5 23.5q-92 0 -115 -102l-104 -453q-11 -50 -11 -79z" />
<glyph unicode="q" d="M90 188q0 91 60 361.5t98 361.5q89 213 291 213q189 0 239 -155l29 129h328l-347 -1501h-327l119 514q-57 -68 -115.5 -102t-138.5 -34q-106 0 -171 54t-65 159zM418 274q0 -39 22.5 -63.5t61.5 -24.5q32 0 55.5 12.5t37.5 37.5t21.5 47t14.5 55l92 393q14 54 14 94 q0 41 -24.5 62.5t-65.5 21.5q-53 0 -86 -51q-28 -41 -85.5 -281.5t-57.5 -302.5z" />
<glyph unicode="r" horiz-adv-x="681" d="M41 0l254 1098h323l-51 -219q61 120 128 167.5t202 69.5l-80 -305q-11 0 -33 1t-34 1q-72 0 -118 -16.5t-73.5 -61t-39.5 -79t-30 -113.5q-1 -5 -2 -8l-122 -535h-324z" />
<glyph unicode="s" horiz-adv-x="937" d="M55 240q0 58 25 135h315q-22 -64 -22 -107q0 -35 21.5 -53t58.5 -18q54 0 80 35t26 90q0 27 -12 49q-14 24 -189 149q-34 25 -50.5 37.5t-43.5 38t-40 46.5t-23.5 51.5t-10.5 64.5q0 51 21 121t51 108q104 135 361 135q52 0 101.5 -7t101.5 -25t90.5 -45t63 -72.5 t24.5 -102.5q0 -33 -17 -112h-309q18 61 18 84q0 30 -23 47.5t-55 17.5q-49 0 -75.5 -29t-26.5 -77q0 -34 40 -70.5t97 -72.5t113.5 -76.5t96.5 -97t40 -119.5q0 -62 -24.5 -139.5t-61.5 -121.5q-56 -69 -153 -98t-205 -29q-57 0 -108.5 6t-107.5 24t-96 46.5t-66 76.5 t-26 110z" />
<glyph unicode="t" horiz-adv-x="641" d="M127 164q0 36 16 106l154 629h-133l45 199h135l80 348h321l-81 -348h143l-45 -199h-144l-133 -569q-8 -40 -8 -62q0 -17 7 -29t15.5 -18t26.5 -9t27 -3.5t31 -0.5t26 1l-49 -209h-158q-276 0 -276 164z" />
<glyph unicode="u" d="M88 186q0 50 14 115l185 797h329l-163 -717q-19 -83 -19 -105q0 -35 21.5 -57t56.5 -22q26 0 47.5 13t33 27.5t23 45t14.5 44t11 46.5l168 725h330l-254 -1098h-330l27 115q-64 -68 -129 -101.5t-152 -33.5q-101 0 -157 52.5t-56 153.5z" />
<glyph unicode="v" horiz-adv-x="894" d="M168 0l25 1098h317q-6 -86 -19.5 -258t-19.5 -258q-19 -256 -39 -404q78 259 117 369q10 29 209 551h342l-492 -1098h-440z" />
<glyph unicode="w" horiz-adv-x="1492" d="M197 1098h315q-3 -51 -9.5 -202.5t-10.5 -226t-13 -194t-20 -217.5q8 26 35.5 116t44.5 138q40 117 120 336t91 250h370q-4 -72 -11 -255.5t-15 -283.5q-2 -27 -29 -301q48 181 76 254l219 586h340l-496 -1098h-352q0 360 27 819q-39 -125 -88.5 -257.5t-119.5 -308.5 t-100 -253h-360z" />
<glyph unicode="x" horiz-adv-x="937" d="M-49 0l411 586l-147 512h324l61 -299l172 299h340l-371 -551l148 -547h-320l-69 319l-191 -319h-358z" />
<glyph unicode="y" horiz-adv-x="894" d="M-119 -399l45 241h74q47 0 70.5 2.5t48 14.5t34 38.5t9.5 71.5v19l33 1110h325l-90 -965q20 105 59 213l256 752h355l-445 -1014q-90 -205 -127 -267q-68 -114 -160 -161q-112 -57 -341 -57q-24 0 -72.5 1t-73.5 1z" />
<glyph unicode="z" horiz-adv-x="854" d="M-37 0l47 211l553 680h-370l47 207h757l-47 -201l-542 -676h421l-51 -221h-815z" />
<glyph unicode="{" horiz-adv-x="811" d="M190 442l41 176q104 9 150.5 63.5t83.5 209.5l49 207q31 133 61.5 193.5t88.5 99.5q50 34 115 45.5t212 11.5h51l-34 -150q-50 -4 -60 -4q-62 -5 -88 -24q-19 -11 -33 -35q-14 -26 -24 -66q-1 -4 -9.5 -35t-13.5 -55l-49 -221q-8 -43 -39 -133q-19 -55 -36.5 -84.5 t-47.5 -56.5q-37 -31 -75 -46.5t-107 -25.5l-4 -12q53 -16 80 -33q84 -52 84 -164q0 -67 -31 -205l-37 -155q-18 -76 -18 -117q0 -59 43 -74q25 -10 104 -14l-35 -150h-41q-92 0 -140 7.5t-91 27.5q-54 26 -83.5 75.5t-29.5 113.5q0 58 27 172l49 202q16 65 16 119 q0 61 -28.5 91.5t-100.5 45.5z" />
<glyph unicode="|" horiz-adv-x="468" d="M-49 -408l430 1856h260l-430 -1856h-260z" />
<glyph unicode="}" horiz-adv-x="811" d="M-100 -410l32 150q10 1 31 2t29 2q62 6 90 25q17 12 31 32q16 27 26 68q2 8 5 20.5t7.5 32.5t8.5 37l51 219q9 40 37 133q19 56 36.5 86.5t47.5 57.5q36 29 74.5 44t109.5 25l2 13q-49 15 -80 34q-82 48 -82 164q0 74 29 203l37 158q20 85 20 116q0 58 -43 74 q-25 10 -106 14l35 150h41q93 0 140.5 -7.5t90.5 -27.5q54 -26 83.5 -75.5t29.5 -114.5q0 -56 -27 -170l-47 -203q-18 -74 -18 -119q0 -61 28.5 -91.5t100.5 -45.5l-41 -176q-104 -9 -149.5 -63t-82.5 -210l-49 -206q-31 -132 -61.5 -192.5t-87.5 -100.5q-50 -34 -116 -46 t-212 -12h-51z" />
<glyph unicode="~" horiz-adv-x="1144" d="M223 688q55 55 101 88q74 53 168 53q32 0 59 -6q38 -10 102 -41l84 -41q47 -23 67 -29.5t44 -6.5q50 0 106 32q38 25 101 80l47 -254q-73 -65 -133 -100q-72 -41 -144 -41q-65 0 -172 55l-47 25q-82 43 -143 43q-44 0 -81.5 -19.5t-94.5 -76.5l-19 -19z" />
<glyph unicode="&#xa1;" horiz-adv-x="598" d="M41 0q10 43 29.5 130t29.5 130q8 36 20 75.5t29 88t25 74.5l150 477h188l-70 -465q-2 -13 -12.5 -99.5t-21.5 -131.5q-10 -46 -32 -139.5t-32 -139.5h-303zM301 1133l74 313h303l-72 -313h-305z" />
<glyph unicode="&#xa2;" horiz-adv-x="980" d="M109 266q0 30 4 66t8.5 64t14 71t15 65.5t17.5 69.5t16 62q3 13 11 48t13 53.5t13 46.5t17 50q50 131 144.5 191t238.5 63l51 225h159l-53 -231q9 -2 42.5 -9.5t51.5 -13.5q187 -59 187 -251q0 -65 -27 -148h-315q2 8 7.5 26.5t8 29t6 26.5t5 30t1.5 27q0 34 -22 53 t-57 19q-67 0 -93.5 -34t-42.5 -107l-100 -439q-4 -14 -4 -40q0 -38 24 -61t62 -23q27 0 48.5 12.5t33.5 25t23.5 44t14 43t10.5 48.5q2 9 3 13h330q-14 -59 -23 -91.5t-24.5 -77t-34 -71t-46.5 -56t-66.5 -50t-88.5 -37.5q-86 -27 -176 -27l-61 -262h-158l63 279 q-120 28 -185.5 94.5t-65.5 183.5z" />
<glyph unicode="&#xa3;" horiz-adv-x="1323" d="M37 223q0 119 84 196t205 77q68 0 119 -17.5t112 -58.5q2 12 2 39q0 73 -39 176h-317l26 117h254q-43 165 -43 266q0 455 480 455q61 0 115 -7t109.5 -26.5t95 -50t64.5 -81.5t25 -118q0 -36 -5.5 -72t-19 -90.5t-16.5 -69.5h-311q2 10 14.5 53.5t17.5 71t5 54.5 q0 98 -105 98q-49 0 -92 -43q-29 -30 -45 -116t-16 -148q0 -51 22 -176h408l-27 -117h-360q16 -90 16 -137q0 -86 -55 -215q52 -31 88 -31q53 0 88 47q13 19 31 81t26 103h318q-4 -19 -13 -60q-17 -85 -28.5 -130t-40 -116t-62.5 -107.5t-93.5 -65.5t-137.5 -29 q-88 0 -156.5 33.5t-132.5 100.5q-130 -136 -315 -136q-123 0 -209 65.5t-86 184.5zM225 233q0 -46 36.5 -72t84.5 -26q51 0 89.5 26.5t82.5 76.5q-44 50 -82.5 76t-89.5 26q-52 0 -86.5 -27.5t-34.5 -79.5z" />
<glyph unicode="&#xa4;" horiz-adv-x="1406" d="M113 270l178 156q-51 110 -51 221q0 99 32 194.5t90 170.5l-137 170l217 190l136 -168q134 70 274 70q84 0 150.5 -22t144.5 -76l178 157l168 -207l-176 -155q49 -109 49 -207q0 -212 -123 -385l139 -172l-219 -191l-139 172q-72 -37 -132 -52t-134 -15 q-90 0 -155.5 21.5t-143.5 76.5l-178 -158zM539 666q0 -117 67 -193t170 -76q122 0 207.5 97t85.5 235q0 118 -68.5 193t-175.5 75q-121 0 -203.5 -95.5t-82.5 -235.5z" />
<glyph unicode="&#xa5;" horiz-adv-x="1067" d="M70 375l49 190h270l-16 129h-226l48 191h151l-82 561h342l47 -596l297 596h391l-344 -561h150l-47 -191h-226l-75 -129h266l-41 -190h-307l-84 -375h-348l86 375h-301z" />
<glyph unicode="&#xa6;" horiz-adv-x="468" d="M-49 -408l182 785h260l-182 -785h-260zM199 664l182 784h260l-182 -784h-260z" />
<glyph unicode="&#xa7;" horiz-adv-x="937" d="M43 197l160 165q45 -48 77 -76.5t84 -55.5t103 -27q34 0 61 14t27 45q0 21 -21 45t-54 48.5t-73 53t-80.5 62.5t-73.5 72t-54 87t-21 101q0 97 48.5 160.5t142.5 103.5q-90 84 -90 189q0 71 33 128t87 91t117.5 52t130.5 18q242 0 412 -173l-152 -163q-63 56 -116 87 t-115 31q-82 0 -82 -55q0 -24 28.5 -53t71.5 -56.5t93.5 -65t93.5 -76.5t71.5 -94.5t28.5 -115.5q0 -91 -53 -162.5t-140 -115.5q80 -97 80 -191q0 -76 -32 -134.5t-86.5 -92.5t-119 -51t-136.5 -17q-277 0 -451 222zM408 819q0 -33 24 -67q28 -38 264 -207q29 25 44.5 47 t15.5 51q0 30 -25 62q-16 20 -66.5 60t-123 92.5t-82.5 60.5q-51 -51 -51 -99z" />
<glyph unicode="&#xa8;" horiz-adv-x="512" d="M-47 1237l59 256h285l-59 -256h-285zM403 1237l60 256h287l-58 -256h-289z" />
<glyph unicode="&#xa9;" horiz-adv-x="1705" d="M221 723q0 200 97 367.5t264.5 264.5t367.5 97q201 0 368.5 -96.5t264 -263.5t96.5 -367q0 -152 -56.5 -287.5t-154 -233t-233 -154t-287.5 -56.5q-198 0 -365.5 97t-264.5 264.5t-97 367.5zM326 723q0 -131 49 -249.5t132 -204t198 -135.5t243 -50t244.5 50.5t200 135.5 t133 203t49.5 248q0 133 -49 252t-132 204t-199 135t-245 50q-127 0 -242.5 -50.5t-199 -136.5t-133 -204t-49.5 -248zM592 453q0 51 14 114l88 371q34 140 115 205t223 65q135 0 206 -52t71 -150q0 -45 -11 -88l-18 -72h-211l18 82q9 45 9 49q0 29 -21.5 45t-60.5 16 q-51 0 -75 -28t-44 -113l-76 -332q-12 -53 -12 -71q0 -68 84 -68q46 0 69.5 24t36.5 85l21 88h211l-19 -80q-2 -7 -6.5 -26t-7.5 -30q-29 -104 -66 -149q-75 -90 -243 -90q-141 0 -218 53.5t-77 151.5z" />
<glyph unicode="&#xaa;" horiz-adv-x="641" d="M186 870q0 55 23.5 126t58.5 104q36 33 137 66.5t191 54.5q14 58 14 77q0 35 -51 35q-36 0 -58.5 -29.5t-25.5 -68.5h-199q3 9 9 34t10.5 40.5t12 35.5t16.5 33q62 88 243 88q43 0 81 -6t76.5 -21t61.5 -46.5t23 -77.5q0 -36 -10 -78l-90 -393q-4 -20 -4 -33 q0 -28 22 -47h-242l17 65q-92 -81 -178 -81q-60 0 -99 31.5t-39 90.5zM401 924q0 -39 48 -39q26 0 75 39l41 157q-6 -2 -29 -8.5t-32 -9.5t-27 -11t-27.5 -16t-19.5 -21.5t-16 -29.5q-13 -46 -13 -61z" />
<glyph unicode="&#xab;" horiz-adv-x="894" d="M106 457l62 262l389 268l-68 -295l-170 -117l115 -118l-59 -256zM516 457l59 260l392 270l-70 -297l-166 -117l113 -116l-62 -260z" />
<glyph unicode="&#xac;" horiz-adv-x="1144" d="M168 487l59 254h865l-144 -635h-323l86 381h-543z" />
<glyph unicode="&#xad;" horiz-adv-x="673" d="M106 481l58 250h559l-57 -250h-560z" />
<glyph unicode="&#xae;" horiz-adv-x="1705" d="M219 723q0 200 97 367.5t264.5 264.5t367.5 97q201 0 368.5 -96.5t264 -263.5t96.5 -367q0 -152 -56.5 -287.5t-154 -233t-233 -154t-287.5 -56.5q-198 0 -365.5 97t-264.5 264.5t-97 367.5zM324 723q0 -131 49 -249.5t132 -204t198 -135.5t243 -50t244.5 50.5t200 135.5 t133 203t49.5 248q0 133 -49 252t-132 204t-199 135t-245 50q-127 0 -242.5 -50.5t-199 -136.5t-133 -204t-49.5 -248zM590 293l207 887h260q132 0 186.5 -36.5t54.5 -125.5q0 -29 -6 -53l-28 -123q-19 -79 -53.5 -116.5t-108.5 -57.5l80 -375h-213l-60 360h-26l-84 -360 h-209zM924 827h43q55 0 76 13.5t30 54.5l10 43q2 12 2 33q0 26 -15.5 35.5t-59.5 9.5h-43z" />
<glyph unicode="&#xaf;" horiz-adv-x="512" d="M-10 1237l41 178h663l-39 -178h-665z" />
<glyph unicode="&#xb0;" horiz-adv-x="724" d="M106 1174q0 148 102.5 250t250.5 102t250 -102t102 -250q0 -147 -103 -251t-249 -104t-249.5 104.5t-103.5 250.5zM346 1178q0 -46 34.5 -80.5t80.5 -34.5t80 34.5t34 80.5q0 47 -34 79.5t-80 32.5q-48 0 -81.5 -32.5t-33.5 -79.5z" />
<glyph unicode="&#xb1;" horiz-adv-x="1144" d="M111 0l59 258h813l-59 -258h-813zM268 682l60 256h247l70 299h318l-68 -299h244l-60 -256h-243l-70 -299h-317l67 299h-248z" />
<glyph unicode="&#xb2;" horiz-adv-x="681" d="M135 543q9 68 20 117t30.5 89.5t38.5 67.5t55.5 57.5t69 53t91.5 60.5q5 3 8 5t8 5t9 6q97 58 117 86q14 19 29.5 75t15.5 84q0 54 -64 54q-18 0 -33 -11.5t-24.5 -26.5t-17.5 -39.5t-12 -41.5t-8.5 -42t-6.5 -32h-207q34 151 50 194q38 96 117 130q61 26 161 26 q256 0 256 -182q0 -66 -22.5 -151t-57.5 -132q-28 -38 -83.5 -75t-105.5 -62t-98.5 -64t-67.5 -83h342l-38 -168h-572z" />
<glyph unicode="&#xb3;" horiz-adv-x="681" d="M172 719q0 49 23 131h202q-22 -86 -22 -121q0 -55 69 -55q11 0 20.5 1.5t17 7t13 9t10.5 13t7.5 13.5t6.5 17t5 16t4.5 18t3.5 17q19 83 19 107q0 45 -90 45q-10 0 -30 -1t-30 -1l37 158q12 0 33 -1t33 -1q69 0 90 24q12 14 24.5 66.5t12.5 77.5q0 26 -15.5 39.5 t-42.5 13.5q-26 0 -43.5 -8t-27.5 -27t-15 -32t-10.5 -43t-7.5 -40h-203q6 20 17 69t20 75q16 48 44 80.5t66.5 48.5t78.5 22t92 6q46 0 87 -8.5t78.5 -27.5t59.5 -55t22 -85q0 -43 -16.5 -115.5t-36.5 -99.5q-42 -57 -98 -57q38 -9 59 -37.5t21 -67.5q0 -41 -27 -151 q-37 -134 -103 -183t-206 -49q-252 0 -252 191z" />
<glyph unicode="&#xb4;" horiz-adv-x="512" d="M162 1239l190 256h340l-282 -256h-248z" />
<glyph unicode="&#xb5;" d="M-57 -395l344 1493h329l-163 -717q-15 -65 -15 -66q-4 -20 -4 -36q0 -37 21.5 -59.5t56.5 -22.5q50 0 78 38t51 138l168 725h330l-226 -973q-6 -27 -6 -51q0 -48 29 -74h-354l10 115q-30 -67 -61 -94t-80 -27q-27 0 -43.5 6.5t-36.5 26.5l-99 -422h-329z" />
<glyph unicode="&#xb6;" horiz-adv-x="1175" d="M254 961q0 112 45 209.5t125 162.5q77 62 183 87.5t284 25.5h426l-43 -180h-74l-371 -1610h-194l373 1610h-170l-371 -1608h-199l221 958q-73 32 -110 62q-125 96 -125 283z" />
<glyph unicode="&#xb7;" horiz-adv-x="512" d="M168 561l72 311h307l-74 -311h-305z" />
<glyph unicode="&#xb8;" horiz-adv-x="512" d="M-184 -301q5 -2 22.5 -8.5t25 -9t21.5 -6.5t25.5 -5.5t23.5 -1.5q43 0 74 26.5t31 67.5q0 33 -24.5 53.5t-57.5 20.5q-13 0 -37 -4l-10 53l119 115h168l-99 -115q148 -18 148 -135q0 -93 -74 -144.5t-172 -51.5q-83 0 -184 53v92z" />
<glyph unicode="&#xb9;" horiz-adv-x="681" d="M322 543l151 655q-54 -33 -151 -59l47 192q55 0 114 33.5t80 81.5h172l-211 -903h-202z" />
<glyph unicode="&#xba;" horiz-adv-x="641" d="M209 932q0 55 35 204.5t59 194.5q40 77 100.5 105t155.5 28q48 0 89.5 -9t78.5 -28.5t58.5 -56.5t21.5 -88q0 -54 -34.5 -210.5t-57.5 -199.5q-38 -71 -97.5 -100t-146.5 -29q-262 0 -262 189zM414 936q0 -49 53 -49q15 0 27 6.5t18 12.5t12.5 23t8 22t6.5 26l63 272 q2 8 2 27q0 23 -14 35t-37 12q-24 0 -39 -12t-20 -25t-11 -39l-63 -272q-6 -36 -6 -39z" />
<glyph unicode="&#xbb;" horiz-adv-x="894" d="M76 199l67 293l168 122l-112 115l61 262l266 -262l-61 -262zM485 201l68 293l170 116l-117 119l62 256l266 -256l-62 -262z" />
<glyph unicode="&#xbc;" horiz-adv-x="1622" d="M322 543l151 655q-54 -33 -151 -59l47 192q55 0 114 33.5t80 81.5h172l-211 -903h-202zM442 0l713 1446h162l-713 -1446h-162zM946 190l35 158l395 557h269l-129 -561h83l-32 -149h-84l-47 -195h-205l47 190h-332zM1157 348h160q6 26 27.5 118.5t36.5 152t32 116.5 q-50 -79 -256 -387z" />
<glyph unicode="&#xbd;" horiz-adv-x="1622" d="M322 543l151 655q-54 -33 -151 -59l47 192q55 0 114 33.5t80 81.5h172l-211 -903h-202zM418 0l712 1446h162l-712 -1446h-162zM950 0q17 129 53.5 213t124.5 149q21 15 84 54.5t115.5 75t69.5 57.5q14 19 29.5 74.5t15.5 83.5q0 53 -64 53q-18 0 -33 -11.5t-24.5 -26.5 t-17.5 -39.5t-12 -41.5t-8.5 -42t-6.5 -32h-207q34 151 50 193q37 97 116 131q61 27 160 27q258 0 258 -183q0 -66 -22.5 -150.5t-57.5 -131.5q-28 -38 -83 -75t-105 -62.5t-98.5 -64.5t-67.5 -83h342l-39 -168h-572z" />
<glyph unicode="&#xbe;" horiz-adv-x="1622" d="M172 719q0 49 23 131h202q-22 -86 -22 -121q0 -55 69 -55q11 0 20.5 1.5t17 7t13 9t10.5 13t7.5 13.5t6.5 17t5 16t4.5 18t3.5 17q19 83 19 107q0 45 -90 45q-10 0 -30 -1t-30 -1l37 158q12 0 33 -1t33 -1q69 0 90 24q12 14 24.5 66.5t12.5 77.5q0 26 -15.5 39.5 t-42.5 13.5q-26 0 -43.5 -8t-27.5 -27t-15 -32t-10.5 -43t-7.5 -40h-203q6 20 17 69t20 75q16 48 44 80.5t66.5 48.5t78.5 22t92 6q46 0 87 -8.5t78.5 -27.5t59.5 -55t22 -85q0 -43 -16.5 -115.5t-36.5 -99.5q-42 -57 -98 -57q38 -9 59 -37.5t21 -67.5q0 -41 -27 -151 q-37 -134 -103 -183t-206 -49q-252 0 -252 191zM502 0l712 1446h164l-714 -1446h-162zM946 190l35 158l395 557h269l-129 -561h83l-32 -149h-84l-47 -195h-205l47 190h-332zM1157 348h160q6 26 27.5 118.5t36.5 152t32 116.5q-50 -79 -256 -387z" />
<glyph unicode="&#xbf;" horiz-adv-x="937" d="M49 233q0 68 29 168q23 79 51 117.5t98 89.5q26 19 75 52.5t65 44.5q97 67 123.5 109t48.5 161h307q-1 -4 -11.5 -55.5t-15.5 -69t-16 -56.5t-24.5 -65t-30.5 -47q-33 -40 -88.5 -77.5t-105 -66.5t-97 -65t-75.5 -88.5t-28 -120.5q0 -35 20.5 -55.5t55.5 -20.5 q47 0 78 31q26 24 59 193h299q-20 -89 -39 -166q-29 -105 -70.5 -159.5t-133.5 -84.5q-83 -29 -211 -29q-363 0 -363 260zM575 1135l74 313h307l-73 -313h-308z" />
<glyph unicode="&#xc0;" horiz-adv-x="1110" d="M-27 0l621 1446h563l-104 -1446h-344l30 322h-268l-123 -322h-375zM510 1796h346l193 -254h-250zM563 569h199l65 744z" />
<glyph unicode="&#xc1;" horiz-adv-x="1110" d="M-27 0l621 1446h563l-104 -1446h-344l30 322h-268l-123 -322h-375zM563 569h199l65 744zM707 1544l190 254h340l-281 -254h-249z" />
<glyph unicode="&#xc2;" horiz-adv-x="1110" d="M-27 0l621 1446h563l-104 -1446h-344l30 322h-268l-123 -322h-375zM522 1542l273 256h260l145 -256h-215l-76 127l-135 -127h-252zM563 569h199l65 744z" />
<glyph unicode="&#xc3;" horiz-adv-x="1110" d="M-27 0l621 1446h563l-104 -1446h-344l30 322h-268l-123 -322h-375zM563 569h199l65 744zM563 1565q7 53 20.5 92.5t37 74.5t63.5 53.5t94 18.5t142.5 -34.5t130.5 -34.5q34 0 54 14.5t36 46.5h92q-6 -50 -21 -92t-40.5 -77t-65.5 -55t-92 -20q-55 0 -146 36t-129 36 q-61 0 -82 -59h-94z" />
<glyph unicode="&#xc4;" horiz-adv-x="1110" d="M-27 0l621 1446h561l-102 -1446h-344l30 322h-266l-125 -322h-375zM518 1538l60 256h284l-59 -256h-285zM565 569h197l65 742zM971 1538l59 256h287l-62 -256h-284z" />
<glyph unicode="&#xc5;" horiz-adv-x="1110" d="M-27 0l621 1446h561l-100 -1446h-346l30 322h-266l-125 -322h-375zM563 569h199l65 746zM707 1659q0 90 59.5 133t151.5 43q89 0 153 -46.5t64 -131.5q0 -83 -63 -129.5t-148 -46.5q-87 0 -152 47t-65 131zM821 1657q0 -38 29.5 -67t67.5 -29q40 0 69 28t29 68t-29 69 t-69 29t-68.5 -29t-28.5 -69z" />
<glyph unicode="&#xc6;" horiz-adv-x="1622" d="M-20 0l837 1446h1012l-60 -248h-372l-78 -336h352l-57 -248h-352l-84 -364h409l-57 -250h-758l94 401h-280l-211 -401h-395zM721 649h203l149 641z" />
<glyph unicode="&#xc7;" horiz-adv-x="1067" d="M100 258q0 63 33 203l139 608q27 125 62 195q26 53 63.5 91t78.5 60t94.5 34.5t101 16.5t108.5 4q69 0 124.5 -6t114.5 -25t98.5 -50t65 -86t25.5 -129q0 -32 -6 -72t-12 -64t-19.5 -75.5t-17.5 -65.5h-336q4 19 17.5 67t20.5 84t7 68q0 90 -108 90q-97 0 -117 -86 l-170 -741q-12 -46 -12 -68q0 -45 27 -66.5t73 -21.5q55 0 96 41q23 23 46.5 114.5t37.5 168.5h357q-7 -31 -20 -91q-17 -77 -26 -114.5t-29.5 -99.5t-40.5 -92.5t-55 -71t-78 -59t-104.5 -32.5t-138.5 -14l-76 -88q148 -18 148 -135q0 -93 -74 -144.5t-172 -51.5 q-86 0 -184 53v92q5 -2 22.5 -8.5t25 -9t21.5 -6.5t25.5 -5.5t23.5 -1.5q42 0 74.5 26.5t32.5 67.5q0 33 -25 53.5t-59 20.5q-13 0 -37 -4l-10 53l94 92q-132 7 -231 81t-99 200z" />
<glyph unicode="&#xc8;" horiz-adv-x="894" d="M41 0l334 1446h727l-58 -248h-374l-76 -332h356l-55 -243h-356l-86 -369h409l-57 -254h-764zM393 1796h346l191 -254h-248z" />
<glyph unicode="&#xc9;" horiz-adv-x="894" d="M41 0l334 1446h727l-58 -248h-374l-76 -332h356l-55 -243h-356l-86 -369h409l-57 -254h-764zM590 1544l190 254h340l-280 -254h-250z" />
<glyph unicode="&#xca;" horiz-adv-x="894" d="M41 0l334 1446h727l-58 -248h-374l-76 -332h356l-55 -243h-356l-86 -369h409l-57 -254h-764zM406 1542l272 256h260l145 -256h-215l-77 127l-134 -127h-251z" />
<glyph unicode="&#xcb;" horiz-adv-x="894" d="M41 0l334 1446h727l-58 -248h-374l-76 -332h356l-55 -243h-356l-86 -369h409l-57 -254h-764zM379 1538l59 256h285l-59 -256h-285zM831 1538l60 256h287l-62 -256h-285z" />
<glyph unicode="&#xcc;" horiz-adv-x="555" d="M43 0l334 1446h350l-334 -1446h-350zM213 1796h344l193 -254h-250z" />
<glyph unicode="&#xcd;" horiz-adv-x="555" d="M43 0l334 1446h350l-334 -1446h-350zM408 1544l192 254h340l-283 -254h-249z" />
<glyph unicode="&#xce;" horiz-adv-x="555" d="M43 0l334 1446h350l-334 -1446h-350zM225 1542l271 256h260l145 -256h-215l-76 127l-135 -127h-250z" />
<glyph unicode="&#xcf;" horiz-adv-x="555" d="M43 0l334 1446h350l-334 -1446h-350zM199 1538l57 256h285l-58 -256h-284zM649 1538l60 256h286l-59 -256h-287z" />
<glyph unicode="&#xd0;" horiz-adv-x="1110" d="M45 0l158 682h-111l49 209h111l127 555h489q52 0 91 -2.5t85.5 -10.5t79 -25t61.5 -43t43.5 -68t14.5 -97q0 -56 -18 -137l-162 -709q-17 -75 -30.5 -120.5t-35 -90.5t-47.5 -68t-66.5 -42.5t-93.5 -26t-128 -6.5h-617zM451 242h88q93 0 127.5 26t54.5 115l160 698 q4 14 4 41q0 43 -23.5 60.5t-68.5 17.5h-121l-72 -309h133l-49 -209h-131z" />
<glyph unicode="&#xd1;" horiz-adv-x="1150" d="M45 0l334 1446h340q66 -508 104 -897q21 136 47.5 272.5t72 353.5t56.5 271h322l-334 -1446h-338q-83 668 -102 891l-176 -891h-326zM563 1565q7 53 20.5 92.5t37 74.5t63.5 53.5t94 18.5t142.5 -34.5t130.5 -34.5q34 0 54 14.5t36 46.5h92q-6 -50 -21 -92t-40.5 -77 t-65.5 -55t-92 -20q-55 0 -146 36t-129 36q-61 0 -82 -59h-94z" />
<glyph unicode="&#xd2;" horiz-adv-x="1110" d="M117 295q0 87 22 180l133 559q33 150 64 213q32 66 80 112t109.5 69t123 32.5t137.5 9.5q439 0 439 -313q0 -26 -3 -56t-5 -49.5t-10 -57t-10.5 -48.5t-13.5 -56.5t-12 -49.5l-116 -488q-30 -129 -70 -198q-33 -57 -81.5 -95.5t-109.5 -56.5t-117 -24.5t-128 -6.5 q-70 0 -129.5 8.5t-116.5 31.5t-97 58.5t-64.5 93t-24.5 132.5zM461 315q0 -44 31 -64t77 -20q30 0 53.5 12.5t37.5 27t27 45.5t17.5 47.5t13.5 55.5t11 48q8 34 25.5 101.5t25.5 101.5q11 46 33.5 137t34.5 137q2 6 11 40.5t12.5 49.5t7.5 41t4 45q0 43 -27.5 66.5 t-71.5 23.5q-54 0 -79.5 -18.5t-42.5 -69.5q-13 -39 -24.5 -81t-25 -98.5t-20.5 -82.5q-70 -266 -103 -401q-2 -10 -11 -43t-13 -56.5t-4 -44.5zM489 1796h347l190 -254h-250z" />
<glyph unicode="&#xd3;" horiz-adv-x="1110" d="M117 295q0 87 22 180l133 559q33 150 64 213q32 66 80 112t109.5 69t123 32.5t137.5 9.5q439 0 439 -313q0 -26 -3 -56t-5 -49.5t-10 -57t-10.5 -48.5t-13.5 -56.5t-12 -49.5l-116 -488q-30 -129 -70 -198q-33 -57 -81.5 -95.5t-109.5 -56.5t-117 -24.5t-128 -6.5 q-70 0 -129.5 8.5t-116.5 31.5t-97 58.5t-64.5 93t-24.5 132.5zM461 315q0 -44 31 -64t77 -20q30 0 53.5 12.5t37.5 27t27 45.5t17.5 47.5t13.5 55.5t11 48q8 34 25.5 101.5t25.5 101.5q11 46 33.5 137t34.5 137q2 6 11 40.5t12.5 49.5t7.5 41t4 45q0 43 -27.5 66.5 t-71.5 23.5q-54 0 -79.5 -18.5t-42.5 -69.5q-13 -39 -24.5 -81t-25 -98.5t-20.5 -82.5q-70 -266 -103 -401q-2 -10 -11 -43t-13 -56.5t-4 -44.5zM696 1544l191 254h340l-281 -254h-250z" />
<glyph unicode="&#xd4;" horiz-adv-x="1110" d="M117 295q0 87 22 180l133 559q33 150 64 213q32 66 80 112t109.5 69t123 32.5t137.5 9.5q439 0 439 -313q0 -26 -3 -56t-5 -49.5t-10 -57t-10.5 -48.5t-13.5 -56.5t-12 -49.5l-116 -488q-30 -129 -70 -198q-33 -57 -81.5 -95.5t-109.5 -56.5t-117 -24.5t-128 -6.5 q-70 0 -129.5 8.5t-116.5 31.5t-97 58.5t-64.5 93t-24.5 132.5zM461 315q0 -44 31 -64t77 -20q30 0 53.5 12.5t37.5 27t27 45.5t17.5 47.5t13.5 55.5t11 48q8 34 25.5 101.5t25.5 101.5q11 46 33.5 137t34.5 137q2 6 11 40.5t12.5 49.5t7.5 41t4 45q0 43 -27.5 66.5 t-71.5 23.5q-54 0 -79.5 -18.5t-42.5 -69.5q-13 -39 -24.5 -81t-25 -98.5t-20.5 -82.5q-70 -266 -103 -401q-2 -10 -11 -43t-13 -56.5t-4 -44.5zM512 1542l272 256h260l146 -256h-215l-76 127l-135 -127h-252z" />
<glyph unicode="&#xd5;" horiz-adv-x="1110" d="M117 295q0 87 22 180l133 559q33 150 64 213q32 66 80 112t109.5 69t123 32.5t137.5 9.5q439 0 439 -313q0 -26 -3 -56t-5 -49.5t-10 -57t-10.5 -48.5t-13.5 -56.5t-12 -49.5l-116 -488q-30 -129 -70 -198q-33 -57 -81.5 -95.5t-109.5 -56.5t-117 -24.5t-128 -6.5 q-70 0 -129.5 8.5t-116.5 31.5t-97 58.5t-64.5 93t-24.5 132.5zM461 315q0 -44 31 -64t77 -20q30 0 53.5 12.5t37.5 27t27 45.5t17.5 47.5t13.5 55.5t11 48q8 34 25.5 101.5t25.5 101.5q11 46 33.5 137t34.5 137q2 6 11 40.5t12.5 49.5t7.5 41t4 45q0 43 -27.5 66.5 t-71.5 23.5q-54 0 -79.5 -18.5t-42.5 -69.5q-13 -39 -24.5 -81t-25 -98.5t-20.5 -82.5q-70 -266 -103 -401q-2 -10 -11 -43t-13 -56.5t-4 -44.5zM553 1565q7 53 20.5 92.5t37 74.5t63.5 53.5t94 18.5t141.5 -34.5t130.5 -34.5q34 0 54 14.5t36 46.5h93q-6 -50 -21 -92 t-40.5 -77t-65.5 -55t-92 -20q-56 0 -146.5 36t-128.5 36q-61 0 -82 -59h-94z" />
<glyph unicode="&#xd6;" horiz-adv-x="1110" d="M117 295q0 87 22 180l133 559q33 150 64 213q32 66 80 112t109.5 69t123 32.5t137.5 9.5q439 0 439 -313q0 -26 -3 -56t-5 -49.5t-10 -57t-10.5 -48.5t-13.5 -56.5t-12 -49.5l-116 -488q-30 -129 -70 -198q-33 -57 -81.5 -95.5t-109.5 -56.5t-117 -24.5t-128 -6.5 q-70 0 -129.5 8.5t-116.5 31.5t-97 58.5t-64.5 93t-24.5 132.5zM461 315q0 -44 31 -64t77 -20q30 0 53.5 12.5t37.5 27t27 45.5t17.5 47.5t13.5 55.5t11 48q8 34 25.5 101.5t25.5 101.5q11 46 33.5 137t34.5 137q2 6 11 40.5t12.5 49.5t7.5 41t4 45q0 43 -27.5 66.5 t-71.5 23.5q-54 0 -79.5 -18.5t-42.5 -69.5q-13 -39 -24.5 -81t-25 -98.5t-20.5 -82.5q-70 -266 -103 -401q-2 -10 -11 -43t-13 -56.5t-4 -44.5zM500 1538l59 256h285l-60 -256h-284zM952 1538l60 256h286l-59 -256h-287z" />
<glyph unicode="&#xd7;" horiz-adv-x="1142" d="M260 387l207 227l-174 248l237 203l152 -213l180 203l174 -193l-202 -227l170 -244l-238 -203l-145 209l-187 -204z" />
<glyph unicode="&#xd8;" horiz-adv-x="1110" d="M23 88l104 115q-8 62 -8 94q0 41 18 156q59 350 170 684q62 192 164 262.5t307 70.5q131 0 224 -24.5t174 -97.5l75 82l86 -82l-110 -121q4 -36 4 -58q0 -35 -3.5 -72.5t-13.5 -86t-15 -73t-20.5 -86t-17.5 -71.5q-4 -18 -19 -81t-20.5 -88t-19 -79t-22.5 -87.5t-22 -78 t-26 -83.5q-57 -175 -157 -241.5t-287 -66.5q-139 0 -231.5 20.5t-170.5 92.5l-77 -80zM446 332q0 -51 33 -80t86 -29q60 0 107 47q28 30 62.5 131.5t75 254.5t42.5 161l-401 -438q-5 -40 -5 -47zM487 594l410 448q6 69 6 70q0 56 -33 85.5t-88 29.5q-56 0 -89.5 -30 t-57.5 -87q-25 -57 -62 -192q-15 -54 -43.5 -161.5t-42.5 -162.5z" />
<glyph unicode="&#xd9;" horiz-adv-x="1110" d="M106 295q0 29 2.5 58.5t9.5 66.5t11 56.5t15 65.5t14 58l198 846h351l-240 -1032q-10 -45 -10 -80q0 -44 30 -65t76 -21q36 0 62 13t42 40t24 51t16 62l239 1032h346l-237 -1032q-26 -124 -60 -195q-62 -135 -177.5 -189.5t-280.5 -54.5q-67 0 -126.5 9t-116.5 32.5 t-97.5 58.5t-65.5 91.5t-25 128.5zM489 1796h347l190 -254h-250z" />
<glyph unicode="&#xda;" horiz-adv-x="1110" d="M106 295q0 29 2.5 58.5t9.5 66.5t11 56.5t15 65.5t14 58l198 846h351l-240 -1032q-10 -45 -10 -80q0 -44 30 -65t76 -21q36 0 62 13t42 40t24 51t16 62l239 1032h346l-237 -1032q-26 -124 -60 -195q-62 -135 -177.5 -189.5t-280.5 -54.5q-67 0 -126.5 9t-116.5 32.5 t-97.5 58.5t-65.5 91.5t-25 128.5zM686 1544l191 254h340l-281 -254h-250z" />
<glyph unicode="&#xdb;" horiz-adv-x="1110" d="M106 295q0 29 2.5 58.5t9.5 66.5t11 56.5t15 65.5t14 58l198 846h351l-240 -1032q-10 -45 -10 -80q0 -44 30 -65t76 -21q36 0 62 13t42 40t24 51t16 62l239 1032h346l-237 -1032q-26 -124 -60 -195q-62 -135 -177.5 -189.5t-280.5 -54.5q-67 0 -126.5 9t-116.5 32.5 t-97.5 58.5t-65.5 91.5t-25 128.5zM502 1542l270 256h262l146 -256h-217l-76 127l-135 -127h-250z" />
<glyph unicode="&#xdc;" horiz-adv-x="1110" d="M106 295q0 29 2.5 58.5t9.5 66.5t11 56.5t15 65.5t14 58l198 846h351l-240 -1032q-10 -45 -10 -80q0 -44 30 -65t76 -21q36 0 62 13t42 40t24 51t16 62l239 1032h346l-237 -1032q-26 -124 -60 -195q-62 -135 -177.5 -189.5t-280.5 -54.5q-67 0 -126.5 9t-116.5 32.5 t-97.5 58.5t-65.5 91.5t-25 128.5zM475 1538l60 256h286l-59 -256h-287zM926 1538l59 256h285l-60 -256h-284z" />
<glyph unicode="&#xdd;" horiz-adv-x="1067" d="M264 1446h342l49 -590l295 590h391l-401 -649q-21 -34 -66 -101t-77.5 -120.5t-57.5 -104.5q-6 -12 -30 -129q-41 -170 -78 -342h-346l114 500zM664 1544l192 254h340l-283 -254h-249z" />
<glyph unicode="&#xde;" horiz-adv-x="1067" d="M43 0l336 1446l352 10l-59 -250h192q53 0 94.5 -5t83 -20t68.5 -40t44 -66.5t17 -97.5q0 -39 -6.5 -86t-13 -76.5t-21 -89t-18.5 -78.5q-29 -120 -53 -167q-30 -58 -76 -89q-83 -55 -244 -55h-268l-78 -336h-350zM532 598h136q30 0 51.5 7.5t34.5 18t23.5 32.5t15 38.5 t12.5 48.5q2 10 10.5 43.5t12 56t3.5 44.5q0 69 -83 69h-132z" />
<glyph unicode="&#xdf;" horiz-adv-x="1067" d="M37 0l260 1122q29 123 59 176q56 103 157.5 139t242.5 36q52 0 102 -5.5t106 -21.5t97 -41.5t68.5 -70.5t27.5 -103q0 -60 -24.5 -170t-51.5 -158q-51 -89 -176 -106q156 -40 156 -174q0 -62 -42.5 -238.5t-70.5 -234.5q-44 -91 -125.5 -126.5t-195.5 -35.5 q-69 0 -209 12l41 178q54 -8 80 -8q20 0 37 4.5t28.5 11t21 18.5t15 22t11 28t8.5 29t7.5 32t6.5 31q5 21 18 70t20.5 78.5t14 71t6.5 75.5q0 28 -10.5 45.5t-30.5 24.5t-39 9t-45 3h-12l45 201h47q68 0 96 28q23 21 43.5 103.5t20.5 124.5q0 73 -98 73q-61 0 -85 -31 t-40 -100l-260 -1122h-328z" />
<glyph unicode="&#xe0;" horiz-adv-x="980" d="M37 170q0 78 37.5 191t87.5 163q26 25 75.5 50.5t117.5 49.5t120 40t127 36.5t94 26.5q3 14 10 39.5t11 47t4 40.5q0 61 -88 61q-15 0 -28.5 -2.5t-23.5 -5.5t-19.5 -11t-15.5 -13t-13 -17.5t-10 -18t-8.5 -21.5t-7 -21.5t-7 -24.5t-6.5 -24h-312q36 171 82 231 q99 131 383 131q385 0 385 -239q0 -49 -18 -123l-146 -631q-6 -24 -6 -53q0 -49 29 -72h-373l29 115q-79 -70 -146 -107t-149 -37q-95 0 -155 52.5t-60 146.5zM350 1495h346l193 -254h-250zM373 252q0 -68 76 -68q36 0 65.5 17t67.5 49l67 264q-7 -2 -40 -12t-53 -16.5 t-48.5 -17.5t-48.5 -23t-31 -25q-20 -23 -35 -72q-20 -72 -20 -96z" />
<glyph unicode="&#xe1;" horiz-adv-x="980" d="M37 170q0 78 37.5 191t87.5 163q26 25 75.5 50.5t117.5 49.5t120 40t127 36.5t94 26.5q3 14 10 39.5t11 47t4 40.5q0 61 -88 61q-15 0 -28.5 -2.5t-23.5 -5.5t-19.5 -11t-15.5 -13t-13 -17.5t-10 -18t-8.5 -21.5t-7 -21.5t-7 -24.5t-6.5 -24h-312q36 171 82 231 q99 131 383 131q385 0 385 -239q0 -49 -18 -123l-146 -631q-6 -24 -6 -53q0 -49 29 -72h-373l29 115q-79 -70 -146 -107t-149 -37q-95 0 -155 52.5t-60 146.5zM373 252q0 -68 76 -68q36 0 65.5 17t67.5 49l67 264q-7 -2 -40 -12t-53 -16.5t-48.5 -17.5t-48.5 -23t-31 -25 q-20 -23 -35 -72q-20 -72 -20 -96zM545 1239l192 256h340l-282 -256h-250z" />
<glyph unicode="&#xe2;" horiz-adv-x="980" d="M37 170q0 78 37.5 191t87.5 163q26 25 75.5 50.5t117.5 49.5t120 40t127 36.5t94 26.5q3 14 10 39.5t11 47t4 40.5q0 61 -88 61q-15 0 -28.5 -2.5t-23.5 -5.5t-19.5 -11t-15.5 -13t-13 -17.5t-10 -18t-8.5 -21.5t-7 -21.5t-7 -24.5t-6.5 -24h-312q36 171 82 231 q99 131 383 131q385 0 385 -239q0 -49 -18 -123l-146 -631q-6 -24 -6 -53q0 -49 29 -72h-373l29 115q-79 -70 -146 -107t-149 -37q-95 0 -155 52.5t-60 146.5zM358 1239l275 256h258l147 -256h-215l-75 127l-138 -127h-252zM373 252q0 -68 76 -68q36 0 65.5 17t67.5 49 l67 264q-7 -2 -40 -12t-53 -16.5t-48.5 -17.5t-48.5 -23t-31 -25q-20 -23 -35 -72q-20 -72 -20 -96z" />
<glyph unicode="&#xe3;" horiz-adv-x="980" d="M37 170q0 78 37.5 191t87.5 163q26 25 75.5 50.5t117.5 49.5t120 40t127 36.5t94 26.5q3 14 10 39.5t11 47t4 40.5q0 61 -88 61q-15 0 -28.5 -2.5t-23.5 -5.5t-19.5 -11t-15.5 -13t-13 -17.5t-10 -18t-8.5 -21.5t-7 -21.5t-7 -24.5t-6.5 -24h-312q36 171 82 231 q99 131 383 131q385 0 385 -239q0 -49 -18 -123l-146 -631q-6 -24 -6 -53q0 -49 29 -72h-373l29 115q-79 -70 -146 -107t-149 -37q-95 0 -155 52.5t-60 146.5zM373 252q0 -68 76 -68q36 0 65.5 17t67.5 49l67 264q-7 -2 -40 -12t-53 -16.5t-48.5 -17.5t-48.5 -23t-31 -25 q-20 -23 -35 -72q-20 -72 -20 -96zM406 1260q6 54 19 94t37 74.5t64 52.5t95 18q50 0 138 -32.5t134 -32.5q63 0 90 59h92q-9 -55 -24 -96t-40 -76t-66 -53.5t-97 -18.5q-51 0 -139.5 36t-128.5 36q-30 0 -48.5 -15t-33.5 -46h-92z" />
<glyph unicode="&#xe4;" horiz-adv-x="980" d="M37 170q0 78 37.5 191t87.5 163q26 25 75.5 50.5t117.5 49.5t120 40t127 36.5t94 26.5q3 14 10 39.5t11 47t4 40.5q0 61 -88 61q-15 0 -28.5 -2.5t-23.5 -5.5t-19.5 -11t-15.5 -13t-13 -17.5t-10 -18t-8.5 -21.5t-7 -21.5t-7 -24.5t-6.5 -24h-312q36 171 82 231 q99 131 383 131q385 0 385 -239q0 -49 -18 -123l-146 -631q-6 -24 -6 -53q0 -49 29 -72h-373l29 115q-79 -70 -146 -107t-149 -37q-95 0 -155 52.5t-60 146.5zM330 1237l59 256h283l-60 -256h-282zM373 252q0 -68 76 -68q36 0 65.5 17t67.5 49l67 264q-7 -2 -40 -12 t-53 -16.5t-48.5 -17.5t-48.5 -23t-31 -25q-20 -23 -35 -72q-20 -72 -20 -96zM780 1237l60 256h286l-59 -256h-287z" />
<glyph unicode="&#xe5;" horiz-adv-x="980" d="M37 170q0 78 37.5 191t87.5 163q26 25 75.5 50.5t117.5 49.5t120 40t127 36.5t94 26.5q3 14 10 39.5t11 47t4 40.5q0 61 -88 61q-15 0 -28.5 -2.5t-23.5 -5.5t-19.5 -11t-15.5 -13t-13 -17.5t-10 -18t-8.5 -21.5t-7 -21.5t-7 -24.5t-6.5 -24h-312q36 171 82 231 q99 131 383 131q385 0 385 -239q0 -49 -18 -123l-146 -631q-6 -24 -6 -53q0 -49 29 -72h-373l29 115q-79 -70 -146 -107t-149 -37q-95 0 -155 52.5t-60 146.5zM373 252q0 -68 76 -68q36 0 65.5 17t67.5 49l67 264q-7 -2 -40 -12t-53 -16.5t-48.5 -17.5t-48.5 -23t-31 -25 q-20 -23 -35 -72q-20 -72 -20 -96zM524 1380q0 90 60 133t153 43q89 0 152 -46t63 -132q0 -83 -62.5 -129.5t-148.5 -46.5q-85 0 -151 47.5t-66 130.5zM639 1378q0 -40 29 -68t69 -28t69.5 28.5t29.5 67.5q0 40 -29.5 69.5t-69.5 29.5t-69 -29.5t-29 -69.5z" />
<glyph unicode="&#xe6;" horiz-adv-x="1492" d="M39 188q0 67 31 166q19 59 41.5 100t47.5 68t61 46t74.5 32.5t96.5 30.5q4 1 5.5 1.5t4.5 1t5 1.5l272 82q3 12 9.5 37t10.5 45.5t4 38.5q0 38 -23 57.5t-61 19.5q-18 0 -33.5 -5t-26.5 -10t-21 -19t-15 -20.5t-12.5 -27t-9 -26.5t-8 -31t-7.5 -28h-313q33 133 41 158 q37 103 118 153q29 17 64 31q96 36 223 36q196 0 275 -114q89 112 287 112q55 0 104.5 -8t95.5 -28t79 -50t53 -77t20 -107q0 -44 -7 -96.5t-14 -85.5t-22.5 -97.5t-20.5 -87.5h-518q-4 -19 -15 -64t-16.5 -78.5t-5.5 -65.5q0 -39 22.5 -59.5t61.5 -20.5q22 0 40 5.5 t30.5 19t20.5 24.5t15.5 34t10 34t8.5 37q1 6 2 9h334q-16 -60 -28.5 -99t-34.5 -84t-48.5 -75t-68.5 -57t-96 -45q-91 -29 -195 -29q-51 0 -97.5 6.5t-95.5 22.5t-87 48t-56 77q-36 -50 -61 -70q-54 -43 -131 -64.5t-154 -21.5q-53 0 -99.5 12.5t-84.5 37.5t-60 68t-22 99z M367 256q0 -35 20 -55.5t55 -20.5q61 0 127 62l62 266q-15 -5 -50 -16t-51.5 -17t-44 -19t-43.5 -26.5t-32.5 -35.5t-26.5 -50q-16 -43 -16 -88zM993 680h199q3 11 9.5 35.5t10 38.5t6.5 34.5t3 38.5q0 40 -24 59t-64 19q-55 0 -91 -49q-9 -13 -25.5 -76.5t-23.5 -99.5z" />
<glyph unicode="&#xe7;" horiz-adv-x="1001" d="M109 266q0 31 4.5 70.5t9 68t16.5 81t16.5 70.5t20.5 77.5t17 64.5q4 14 11.5 46.5t12 51t13.5 45.5t18 48q30 70 73.5 117.5t100.5 72t117 34t139 9.5q72 0 136 -14.5t121 -45t90.5 -87.5t33.5 -133q0 -39 -27 -154h-315q2 8 7.5 26.5t8 29t6 26.5t5 30t1.5 27 q0 34 -22 53t-57 19q-63 0 -91.5 -36t-44.5 -105l-100 -439q-4 -14 -4 -40q0 -38 24 -61t62 -23q27 0 48.5 12.5t33.5 25t23.5 44t14 43t10.5 48.5q2 9 3 13h330q-28 -119 -41 -156q-84 -232 -377 -252l-76 -88q150 -18 150 -135q0 -93 -75.5 -144.5t-172.5 -51.5 q-51 0 -91 12.5t-93 40.5v92q5 -2 22.5 -8.5t25 -9t21.5 -6.5t25.5 -5.5t23.5 -1.5q42 0 74.5 26.5t32.5 67.5q0 33 -25 53.5t-59 20.5q-13 0 -37 -4l-10 53l98 97q-64 13 -112 33t-88 52.5t-61 82.5t-21 116z" />
<glyph unicode="&#xe8;" d="M111 266q0 39 12 121q16 108 57 277.5t74 240.5q103 219 408 219q397 0 397 -266q0 -45 -8 -100.5t-16 -91t-25.5 -104.5t-22.5 -91h-524q-3 -16 -11 -48t-12 -52t-8 -47.5t-4 -51.5q0 -38 27 -56.5t67 -18.5q24 0 42 5t31 19t21 24t15 34.5t9.5 34.5t8.5 40h332 q-17 -63 -24.5 -87.5t-25.5 -70.5t-42.5 -77t-59.5 -60q-57 -46 -145 -67t-176 -21q-61 0 -115.5 8.5t-107 30t-90.5 54.5t-61 84.5t-23 117.5zM371 1495h346l194 -254h-252zM508 672h211q3 15 11.5 46t13 55.5t4.5 47.5q0 84 -93 84q-25 0 -44.5 -7.5t-33.5 -24t-24 -32 t-17.5 -42t-11 -42.5t-9 -45.5t-7.5 -39.5z" />
<glyph unicode="&#xe9;" d="M111 266q0 39 12 121q16 108 57 277.5t74 240.5q103 219 408 219q397 0 397 -266q0 -45 -8 -100.5t-16 -91t-25.5 -104.5t-22.5 -91h-524q-3 -16 -11 -48t-12 -52t-8 -47.5t-4 -51.5q0 -38 27 -56.5t67 -18.5q24 0 42 5t31 19t21 24t15 34.5t9.5 34.5t8.5 40h332 q-17 -63 -24.5 -87.5t-25.5 -70.5t-42.5 -77t-59.5 -60q-57 -46 -145 -67t-176 -21q-61 0 -115.5 8.5t-107 30t-90.5 54.5t-61 84.5t-23 117.5zM508 672h211q3 15 11.5 46t13 55.5t4.5 47.5q0 84 -93 84q-25 0 -44.5 -7.5t-33.5 -24t-24 -32t-17.5 -42t-11 -42.5t-9 -45.5 t-7.5 -39.5zM567 1239l191 256h340l-283 -256h-248z" />
<glyph unicode="&#xea;" d="M111 266q0 39 12 121q16 108 57 277.5t74 240.5q103 219 408 219q397 0 397 -266q0 -45 -8 -100.5t-16 -91t-25.5 -104.5t-22.5 -91h-524q-3 -16 -11 -48t-12 -52t-8 -47.5t-4 -51.5q0 -38 27 -56.5t67 -18.5q24 0 42 5t31 19t21 24t15 34.5t9.5 34.5t8.5 40h332 q-17 -63 -24.5 -87.5t-25.5 -70.5t-42.5 -77t-59.5 -60q-57 -46 -145 -67t-176 -21q-61 0 -115.5 8.5t-107 30t-90.5 54.5t-61 84.5t-23 117.5zM381 1239l272 256h258l148 -256h-215l-76 127l-137 -127h-250zM508 672h211q3 15 11.5 46t13 55.5t4.5 47.5q0 84 -93 84 q-25 0 -44.5 -7.5t-33.5 -24t-24 -32t-17.5 -42t-11 -42.5t-9 -45.5t-7.5 -39.5z" />
<glyph unicode="&#xeb;" d="M111 266q0 39 12 121q16 108 57 277.5t74 240.5q103 219 408 219q397 0 397 -266q0 -45 -8 -100.5t-16 -91t-25.5 -104.5t-22.5 -91h-524q-3 -16 -11 -48t-12 -52t-8 -47.5t-4 -51.5q0 -38 27 -56.5t67 -18.5q24 0 42 5t31 19t21 24t15 34.5t9.5 34.5t8.5 40h332 q-17 -63 -24.5 -87.5t-25.5 -70.5t-42.5 -77t-59.5 -60q-57 -46 -145 -67t-176 -21q-61 0 -115.5 8.5t-107 30t-90.5 54.5t-61 84.5t-23 117.5zM358 1237l60 256h284l-59 -256h-285zM508 672h211q3 15 11.5 46t13 55.5t4.5 47.5q0 84 -93 84q-25 0 -44.5 -7.5t-33.5 -24 t-24 -32t-17.5 -42t-11 -42.5t-9 -45.5t-7.5 -39.5zM809 1237l59 256h287l-57 -256h-289z" />
<glyph unicode="&#xec;" horiz-adv-x="512" d="M39 0l252 1098h327l-253 -1098h-326zM115 1495h346l194 -254h-252z" />
<glyph unicode="&#xed;" horiz-adv-x="512" d="M39 0l252 1098h327l-253 -1098h-326zM311 1239l191 256h340l-283 -256h-248z" />
<glyph unicode="&#xee;" horiz-adv-x="512" d="M39 0l252 1098h327l-253 -1098h-326zM125 1239l272 256h258l148 -256h-215l-76 127l-137 -127h-250z" />
<glyph unicode="&#xef;" horiz-adv-x="512" d="M39 0l252 1098h327l-253 -1098h-326zM102 1237l60 256h284l-59 -256h-285zM553 1237l59 256h287l-57 -256h-289z" />
<glyph unicode="&#xf0;" d="M111 270q0 82 43.5 283t76.5 293q27 80 66 135q52 72 129 110.5t166 38.5q132 0 199 -81q-3 55 -14 89.5t-40 96.5l-243 -70l-45 121l221 64q-22 39 -49 69l258 80q7 -12 27 -36t28 -40l137 41l47 -123l-117 -34q76 -155 76 -314q0 -147 -28.5 -302.5t-79.5 -348.5 q-29 -112 -54 -164q-98 -203 -401 -203q-287 0 -373 148q-30 52 -30 147zM428 281q0 -39 25 -62.5t65 -23.5q26 0 45.5 9t30 18.5t21 34t13 35t9.5 42.5q1 5 2 8l100 440q6 21 6 45q0 37 -25 58.5t-63 21.5q-53 0 -78.5 -32.5t-39.5 -92.5l-101 -438q-10 -50 -10 -63z" />
<glyph unicode="&#xf1;" d="M41 0l252 1098h321l-24 -111q58 61 134 98t155 37q97 0 150.5 -52t53.5 -148q0 -52 -12 -105l-188 -817h-328l178 772q4 24 4 39q0 90 -75 90q-95 0 -123 -131l-179 -770h-319zM428 1260q7 54 19.5 94t36 74.5t63.5 52.5t96 18q48 0 136.5 -32.5t135.5 -32.5q63 0 89 59 h92q-20 -115 -70 -179.5t-156 -64.5q-52 0 -141 36t-129 36q-56 0 -82 -61h-90z" />
<glyph unicode="&#xf2;" d="M111 270q0 31 4 68t8 64.5t13.5 73.5t14 65t17.5 71.5t16 63.5q31 141 62 213q58 132 159.5 184.5t256.5 52.5q65 0 120 -8t108.5 -29.5t90.5 -54.5t59.5 -86.5t22.5 -122.5q0 -29 -4 -64.5t-8.5 -64t-14 -73.5t-15 -67t-17.5 -71t-15 -61q-15 -62 -27 -105.5 t-28.5 -90.5t-35.5 -78t-44.5 -62t-57.5 -50t-73.5 -34.5t-93 -22t-115.5 -6.5q-403 0 -403 295zM371 1495h346l194 -254h-252zM428 281q0 -39 25 -62.5t65 -23.5q26 0 45.5 9t30 18.5t21 34t13 35t9.5 42.5q1 5 2 8l100 440q6 21 6 45q0 37 -25 58.5t-63 21.5 q-53 0 -78.5 -32.5t-39.5 -92.5l-101 -438q-10 -50 -10 -63z" />
<glyph unicode="&#xf3;" d="M111 270q0 31 4 68t8 64.5t13.5 73.5t14 65t17.5 71.5t16 63.5q31 141 62 213q58 132 159.5 184.5t256.5 52.5q65 0 120 -8t108.5 -29.5t90.5 -54.5t59.5 -86.5t22.5 -122.5q0 -29 -4 -64.5t-8.5 -64t-14 -73.5t-15 -67t-17.5 -71t-15 -61q-15 -62 -27 -105.5 t-28.5 -90.5t-35.5 -78t-44.5 -62t-57.5 -50t-73.5 -34.5t-93 -22t-115.5 -6.5q-403 0 -403 295zM428 281q0 -39 25 -62.5t65 -23.5q26 0 45.5 9t30 18.5t21 34t13 35t9.5 42.5q1 5 2 8l100 440q6 21 6 45q0 37 -25 58.5t-63 21.5q-53 0 -78.5 -32.5t-39.5 -92.5l-101 -438 q-10 -50 -10 -63zM567 1239l191 256h340l-283 -256h-248z" />
<glyph unicode="&#xf4;" d="M111 270q0 31 4 68t8 64.5t13.5 73.5t14 65t17.5 71.5t16 63.5q31 141 62 213q58 132 159.5 184.5t256.5 52.5q65 0 120 -8t108.5 -29.5t90.5 -54.5t59.5 -86.5t22.5 -122.5q0 -29 -4 -64.5t-8.5 -64t-14 -73.5t-15 -67t-17.5 -71t-15 -61q-15 -62 -27 -105.5 t-28.5 -90.5t-35.5 -78t-44.5 -62t-57.5 -50t-73.5 -34.5t-93 -22t-115.5 -6.5q-403 0 -403 295zM381 1239l272 256h258l148 -256h-215l-76 127l-137 -127h-250zM428 281q0 -39 25 -62.5t65 -23.5q26 0 45.5 9t30 18.5t21 34t13 35t9.5 42.5q1 5 2 8l100 440q6 21 6 45 q0 37 -25 58.5t-63 21.5q-53 0 -78.5 -32.5t-39.5 -92.5l-101 -438q-10 -50 -10 -63z" />
<glyph unicode="&#xf5;" d="M111 270q0 31 4 68t8 64.5t13.5 73.5t14 65t17.5 71.5t16 63.5q31 141 62 213q58 132 159.5 184.5t256.5 52.5q65 0 120 -8t108.5 -29.5t90.5 -54.5t59.5 -86.5t22.5 -122.5q0 -29 -4 -64.5t-8.5 -64t-14 -73.5t-15 -67t-17.5 -71t-15 -61q-15 -62 -27 -105.5 t-28.5 -90.5t-35.5 -78t-44.5 -62t-57.5 -50t-73.5 -34.5t-93 -22t-115.5 -6.5q-403 0 -403 295zM428 281q0 -39 25 -62.5t65 -23.5q26 0 45.5 9t30 18.5t21 34t13 35t9.5 42.5q1 5 2 8l100 440q6 21 6 45q0 37 -25 58.5t-63 21.5q-53 0 -78.5 -32.5t-39.5 -92.5l-101 -438 q-10 -50 -10 -63zM428 1260q7 54 19.5 94t36 74.5t63.5 52.5t96 18q48 0 136.5 -32.5t135.5 -32.5q63 0 89 59h92q-20 -115 -70 -179.5t-156 -64.5q-52 0 -141 36t-129 36q-56 0 -82 -61h-90z" />
<glyph unicode="&#xf6;" d="M111 270q0 31 4 68t8 64.5t13.5 73.5t14 65t17.5 71.5t16 63.5q31 141 62 213q58 132 159.5 184.5t256.5 52.5q65 0 120 -8t108.5 -29.5t90.5 -54.5t59.5 -86.5t22.5 -122.5q0 -29 -4 -64.5t-8.5 -64t-14 -73.5t-15 -67t-17.5 -71t-15 -61q-15 -62 -27 -105.5 t-28.5 -90.5t-35.5 -78t-44.5 -62t-57.5 -50t-73.5 -34.5t-93 -22t-115.5 -6.5q-403 0 -403 295zM362 1237l60 256h283l-60 -256h-283zM428 281q0 -39 25 -62.5t65 -23.5q26 0 45.5 9t30 18.5t21 34t13 35t9.5 42.5q1 5 2 8l100 440q6 21 6 45q0 37 -25 58.5t-63 21.5 q-53 0 -78.5 -32.5t-39.5 -92.5l-101 -438q-10 -50 -10 -63zM813 1237l59 256h287l-59 -256h-287z" />
<glyph unicode="&#xf7;" horiz-adv-x="1144" d="M193 485l59 258h858l-59 -258h-858zM387 66l70 309h286l-71 -309h-285zM565 854l72 307h285l-72 -307h-285z" />
<glyph unicode="&#xf8;" d="M45 18l90 107q-31 56 -31 143q0 35 3.5 70t13.5 81.5t14.5 66.5t20.5 80.5t18 68.5q52 194 87 269q65 137 182 186q84 34 204 34q183 0 289 -61l88 104l76 -61l-88 -102q32 -46 42.5 -79.5t10.5 -90.5q0 -31 -4.5 -70t-8.5 -66t-15.5 -76.5t-15.5 -67.5t-19 -74.5 t-17 -63.5q-38 -156 -65 -217q-31 -67 -72 -112.5t-94 -70t-110.5 -34t-133.5 -9.5q-207 0 -307 78l-84 -96zM393 272q16 -94 107 -94q59 0 100 47q12 14 28 50.5t30 77.5t31.5 100.5t27.5 97.5t24.5 91.5t16.5 62.5zM420 453l340 407q-26 60 -96 60q-56 0 -88.5 -38.5 t-53.5 -101.5z" />
<glyph unicode="&#xf9;" d="M88 186q0 50 14 115l185 797h329l-163 -717q-19 -83 -19 -105q0 -35 21.5 -57t56.5 -22q26 0 47.5 13t33 27.5t23 45t14.5 44t11 46.5l168 725h330l-254 -1098h-330l27 115q-64 -68 -129 -101.5t-152 -33.5q-101 0 -157 52.5t-56 153.5zM371 1495h346l194 -254h-252z" />
<glyph unicode="&#xfa;" d="M88 186q0 50 14 115l185 797h329l-163 -717q-19 -83 -19 -105q0 -35 21.5 -57t56.5 -22q26 0 47.5 13t33 27.5t23 45t14.5 44t11 46.5l168 725h330l-254 -1098h-330l27 115q-64 -68 -129 -101.5t-152 -33.5q-101 0 -157 52.5t-56 153.5zM567 1239l191 256h340l-283 -256 h-248z" />
<glyph unicode="&#xfb;" d="M88 186q0 50 14 115l185 797h329l-163 -717q-19 -83 -19 -105q0 -35 21.5 -57t56.5 -22q26 0 47.5 13t33 27.5t23 45t14.5 44t11 46.5l168 725h330l-254 -1098h-330l27 115q-64 -68 -129 -101.5t-152 -33.5q-101 0 -157 52.5t-56 153.5zM381 1239l272 256h258l148 -256 h-215l-76 127l-137 -127h-250z" />
<glyph unicode="&#xfc;" d="M88 186q0 50 14 115l185 797h329l-163 -717q-19 -83 -19 -105q0 -35 21.5 -57t56.5 -22q26 0 47.5 13t33 27.5t23 45t14.5 44t11 46.5l168 725h330l-254 -1098h-330l27 115q-64 -68 -129 -101.5t-152 -33.5q-101 0 -157 52.5t-56 153.5zM377 1237l59 256h283l-60 -256 h-282zM827 1237l60 256h287l-60 -256h-287z" />
<glyph unicode="&#xfd;" horiz-adv-x="894" d="M-119 -399l45 241h74q47 0 70.5 2.5t48 14.5t34 38.5t9.5 71.5v19l33 1110h325l-90 -965q20 105 59 213l256 752h355l-445 -1014q-90 -205 -127 -267q-68 -114 -160 -161q-112 -57 -341 -57q-24 0 -72.5 1t-73.5 1zM504 1239l190 256h340l-282 -256h-248z" />
<glyph unicode="&#xfe;" d="M-51 -395l424 1841h329l-116 -488q65 83 127 122.5t155 39.5q102 0 162 -59t60 -160q0 -58 -17 -131l-106 -463q-17 -75 -38.5 -129t-58 -103.5t-93 -75.5t-132.5 -26q-92 0 -157.5 43.5t-84.5 130.5l-127 -542h-327zM440 279q0 -38 23 -62t61 -24q88 0 115 114l98 428 q2 9 7 28.5t7.5 35t2.5 30.5q0 37 -23.5 60.5t-60.5 23.5q-92 0 -115 -102l-104 -453q-11 -50 -11 -79z" />
<glyph unicode="&#xff;" horiz-adv-x="894" d="M-119 -399l45 241h74q47 0 70.5 2.5t48 14.5t34 38.5t9.5 71.5v19l33 1110h325l-90 -965q20 105 59 213l256 752h355l-445 -1014q-90 -205 -127 -267q-68 -114 -160 -161q-112 -57 -341 -57q-24 0 -72.5 1t-73.5 1zM295 1237l59 256h283l-57 -256h-285zM745 1237l60 256 h287l-60 -256h-287z" />
<glyph unicode="&#x152;" horiz-adv-x="1449" d="M106 246q0 22 15 135q33 212 112 506q6 23 22 82t24.5 90.5t23.5 78.5t29 85q47 122 96 168q89 82 240 82q164 0 268 -99l16 72h719l-57 -248h-367l-78 -332h347l-60 -252h-344l-84 -362h397l-57 -252h-750l21 90q-51 -63 -109.5 -89t-142.5 -26q-137 0 -209 67.5 t-72 203.5zM461 293q0 -42 27 -64t71 -22q62 0 103 53q34 45 88 301l106 463q18 74 18 123q0 44 -26.5 67t-71.5 23q-59 0 -96 -45q-31 -40 -125 -431.5t-94 -467.5z" />
<glyph unicode="&#x153;" horiz-adv-x="1536" d="M111 262q0 63 14.5 150.5t26.5 136t38 149.5q40 161 64 213q103 217 401 217q194 0 277 -116q112 112 317 112q66 0 124.5 -14t109 -43.5t79.5 -82t29 -122.5q0 -55 -10.5 -114.5t-34 -151.5t-28.5 -113h-517q-4 -16 -13 -50.5t-13.5 -55t-9 -49.5t-4.5 -54 q0 -34 23.5 -53.5t57.5 -19.5q29 0 50.5 9.5t33.5 20.5t22.5 37t14 39.5t11.5 48.5h333q-27 -104 -59.5 -172t-84.5 -117t-127 -70.5t-181 -21.5q-209 0 -279 119q-7 -6 -20.5 -19t-24.5 -22t-22 -16q-48 -32 -117 -49t-133 -17q-151 0 -249.5 72.5t-98.5 218.5zM426 279 q0 -37 24 -58.5t62 -21.5q52 0 78.5 29t38.5 83l100 437q14 63 14 79q0 78 -86 78q-26 0 -47 -10t-33.5 -23.5t-23 -37.5t-15 -41t-10.5 -45l-94 -406q-8 -40 -8 -63zM1044 678h203q3 16 11.5 46.5t13 54.5t4.5 46q0 82 -84 82q-25 0 -44.5 -7.5t-34 -24t-24 -31 t-17.5 -41.5t-11.5 -41.5t-9 -44.5t-7.5 -39z" />
<glyph unicode="&#x178;" horiz-adv-x="1067" d="M264 1446h342l49 -590l295 590h391l-401 -649q-21 -34 -66 -101t-77.5 -120.5t-57.5 -104.5q-6 -12 -30 -129q-41 -170 -78 -342h-346l114 500zM442 1538l60 256h284l-59 -256h-285zM895 1538l59 256h287l-59 -256h-287z" />
<glyph unicode="&#x2c6;" horiz-adv-x="512" d="M-25 1239l275 256h258l145 -256h-215l-76 127l-137 -127h-250z" />
<glyph unicode="&#x2dc;" horiz-adv-x="512" d="M23 1260q7 54 19.5 94t36 74.5t63.5 52.5t96 18q48 0 136.5 -32.5t135.5 -32.5q62 0 88 59h92q-20 -115 -69.5 -179.5t-155.5 -64.5q-52 0 -141 36t-129 36q-56 0 -82 -61h-90z" />
<glyph unicode="&#x2000;" horiz-adv-x="917" />
<glyph unicode="&#x2001;" horiz-adv-x="1835" />
<glyph unicode="&#x2002;" horiz-adv-x="917" />
<glyph unicode="&#x2003;" horiz-adv-x="1835" />
<glyph unicode="&#x2004;" horiz-adv-x="611" />
<glyph unicode="&#x2005;" horiz-adv-x="458" />
<glyph unicode="&#x2006;" horiz-adv-x="305" />
<glyph unicode="&#x2007;" horiz-adv-x="305" />
<glyph unicode="&#x2008;" horiz-adv-x="229" />
<glyph unicode="&#x2009;" horiz-adv-x="367" />
<glyph unicode="&#x200a;" horiz-adv-x="101" />
<glyph unicode="&#x2010;" horiz-adv-x="673" d="M106 481l58 250h559l-57 -250h-560z" />
<glyph unicode="&#x2011;" horiz-adv-x="673" d="M106 481l58 250h559l-57 -250h-560z" />
<glyph unicode="&#x2012;" horiz-adv-x="673" d="M106 481l58 250h559l-57 -250h-560z" />
<glyph unicode="&#x2013;" horiz-adv-x="1009" d="M106 481l58 250h895l-58 -250h-895z" />
<glyph unicode="&#x2014;" horiz-adv-x="1359" d="M106 481l58 250h1245l-59 -250h-1244z" />
<glyph unicode="&#x2018;" horiz-adv-x="512" d="M229 817l74 316l248 313h131l-186 -313h114l-73 -316h-308z" />
<glyph unicode="&#x2019;" horiz-adv-x="512" d="M236 815l186 320h-113l72 311h309l-72 -311l-249 -320h-133z" />
<glyph unicode="&#x201a;" horiz-adv-x="512" d="M-35 -319l187 319h-113l72 311h309l-74 -311l-250 -319h-131z" />
<glyph unicode="&#x201c;" horiz-adv-x="894" d="M221 817l72 309l237 320h142l-183 -320h109l-72 -309h-305zM635 817l70 309l245 320h135l-186 -320h113l-72 -309h-305z" />
<glyph unicode="&#x201d;" horiz-adv-x="894" d="M229 819l187 318h-113l72 309h307l-72 -309l-245 -318h-136zM643 819l184 318h-110l71 309h306l-72 -309l-238 -318h-141z" />
<glyph unicode="&#x201e;" horiz-adv-x="894" d="M-53 -315l186 315h-113l72 313h307l-73 -313l-242 -315h-137zM362 -315l181 315h-109l74 313h303l-72 -313l-237 -315h-140z" />
<glyph unicode="&#x2022;" horiz-adv-x="681" d="M145 461l117 504h479l-116 -504h-480z" />
<glyph unicode="&#x2026;" horiz-adv-x="2048" d="M162 0l63 272h246l-63 -272h-246zM846 0l61 272h246l-61 -272h-246zM1526 0l63 272h246l-63 -272h-246z" />
<glyph unicode="&#x202f;" horiz-adv-x="367" />
<glyph unicode="&#x2039;" horiz-adv-x="468" d="M96 451l64 262l389 270l-70 -299l-172 -115l121 -118l-61 -256z" />
<glyph unicode="&#x203a;" horiz-adv-x="468" d="M63 195l68 299l172 112l-117 119l60 258l268 -258l-61 -260z" />
<glyph unicode="&#x205f;" horiz-adv-x="458" />
<glyph unicode="&#x20ac;" horiz-adv-x="1110" d="M127 545l72 133h94l20 90h-125l70 135h86l37 168q44 204 167.5 303t332.5 99q110 0 194.5 -33.5t161.5 -110.5l-150 -280q-84 127 -200 127q-21 0 -40 -5t-33 -12t-27.5 -21t-22.5 -25.5t-18 -32t-14 -33t-11.5 -37t-9 -36.5t-8 -37t-7.5 -34h324l-72 -135h-282l-21 -90 h264l-69 -133h-226q-26 -86 -26 -160q0 -78 39.5 -110.5t120.5 -32.5q158 0 286 96l-76 -315q-132 -52 -325 -52q-69 0 -127 9.5t-111.5 33t-90.5 60t-59 93t-22 128.5q0 77 39 250h-135z" />
<glyph unicode="&#x2122;" horiz-adv-x="1314" d="M254 1307l33 139h471l-31 -139h-141l-125 -541h-185l125 541h-147zM651 766l158 680h256l-6 -387l174 387h258l-158 -680h-172l123 518l-213 -518h-145l10 526l-117 -526h-168z" />
<glyph unicode="&#x25fc;" horiz-adv-x="1095" d="M0 0v1096h1096v-1096h-1096z" />
</font>
</defs>
</svg>
